M48
;DRILL file {KiCad (5.0.0)} date 08/20/18 01:03:44
;FORMAT={-:-/ absolute / inch / decimal}
FMAT,2
INCH,TZ
T1C0.0157
T2C0.0197
T3C0.0236
T4C0.0354
T5C0.0394
T6C0.0433
%
G90
G05
M72
T1
X5.0576Y-3.5041
X5.0626Y-4.6741
X5.1063Y-2.2795
X5.1102Y-5.1732
X5.1351Y-2.6877
X5.1776Y-4.7541
X5.2099Y-2.6877
X5.2933Y-4.1041
X5.3276Y-3.6541
X5.3376Y-3.0091
X5.4016Y-5.752
X5.4776Y-4.2241
X5.5176Y-3.7641
X5.5226Y-3.7141
X5.5228Y-4.0513
X5.5326Y-3.6041
X5.5472Y-5.4173
X5.5676Y-3.3591
X5.5676Y-3.5241
X5.6076Y-4.0184
X5.6173Y-4.178
X5.6226Y-3.2291
X5.6293Y-3.6058
X5.6376Y-4.2641
X5.645Y-4.675
X5.6476Y-4.4341
X5.6676Y-3.7641
X5.6676Y-4.3941
X5.6876Y-2.9584
X5.6929Y-3.5079
X5.7126Y-3.7164
X5.7335Y-3.8176
X5.7335Y-3.857
X5.7426Y-4.2991
X5.7526Y-3.6841
X5.7887Y-3.798
X5.7934Y-4.0841
X5.8226Y-3.5041
X5.8226Y-3.7491
X5.8543Y-3.4331
X5.8858Y-3.3268
X5.8883Y-4.3491
X5.895Y-4.92
X5.8976Y-4.6641
X5.9026Y-4.2391
X5.9173Y-3.4094
X5.9176Y-3.7641
X5.9376Y-4.1791
X5.9376Y-4.3691
X5.9463Y-4.4681
X5.9476Y-3.2391
X5.9476Y-4.5991
X6.0091Y-3.6247
X6.02Y-4.73
X6.0524Y-3.6247
X6.0669Y-3.9252
X6.0783Y-3.5084
X6.0926Y-3.7641
X6.1732Y-4.5315
X6.1732Y-4.5315
X6.1732Y-4.5315
X6.1732Y-4.9291
X6.189Y-5.6969
X6.3226Y-3.0791
X6.4076Y-3.6641
X6.4076Y-3.8491
X6.4076Y-4.4641
X6.4076Y-4.5741
X6.4173Y-3.3268
X6.4304Y-2.8924
X6.4934Y-2.8924
X6.5118Y-5.0669
T4
X5.7426Y-5.6641
X5.8426Y-5.6641
X6.1426Y-5.3641
X6.2426Y-5.3641
X5.7426Y-5.4641
X5.8426Y-5.4641
X5.7426Y-5.2641
X5.8426Y-5.2641
X5.7426Y-5.0641
X5.8426Y-5.0641
T5
X5.7426Y-2.4141
X5.7426Y-2.5141
X5.7426Y-2.6141
X5.7426Y-2.7141
X5.7426Y-2.8141
X5.8426Y-2.4141
X5.8426Y-2.5141
X5.8426Y-2.6141
X5.8426Y-2.7141
X5.8426Y-2.8141
X5.1176Y-3.6141
X5.1176Y-3.7141
X5.1176Y-3.8141
X5.1026Y-4.0641
X5.1026Y-4.1641
X5.1026Y-4.2641
X5.2026Y-4.0641
X5.2026Y-4.1641
X5.2026Y-4.2641
X5.2942Y-2.8594
X5.3942Y-2.8594
X5.491Y-2.8594
X5.1176Y-3.1891
X5.1176Y-3.2891
X5.1176Y-3.3891
T6
X5.6626Y-5.8341
X5.6626Y-6.0113
X5.9185Y-5.8341
X5.9185Y-6.0113
X5.6926Y-3.1141
X5.7926Y-3.1141
X5.8926Y-3.1141
T2
X6.1709Y-4.7704G85X6.2143Y-4.7704
G05
X6.1709Y-5.5704G85X6.2143Y-5.5704
G05
X5.3709Y-5.5704G85X5.4143Y-5.5704
G05
X5.3709Y-4.7704G85X5.4143Y-4.7704
G05
T3
X6.1729Y-5.0972G85X6.2123Y-5.0972
G05
X6.1769Y-5.2192G85X6.2083Y-5.2192
G05
X6.1729Y-5.8972G85X6.2123Y-5.8972
G05
X6.1769Y-6.0192G85X6.2083Y-6.0192
G05
X5.3729Y-5.8972G85X5.4123Y-5.8972
G05
X5.3769Y-6.0192G85X5.4083Y-6.0192
G05
X5.3729Y-5.0972G85X5.4123Y-5.0972
G05
X5.3769Y-5.2192G85X5.4083Y-5.2192
G05
T4
X5.367Y-3.1791G85X5.4182Y-3.1791
G05
X5.367Y-3.3641G85X5.4182Y-3.3641
G05
X5.367Y-3.5491G85X5.4182Y-3.5491
G05
X5.367Y-3.9791G85X5.4182Y-3.9791
G05
X5.367Y-4.1641G85X5.4182Y-4.1641
G05
X5.367Y-4.3491G85X5.4182Y-4.3491
G05
X6.167Y-3.9791G85X6.2182Y-3.9791
G05
X6.167Y-4.1641G85X6.2182Y-4.1641
G05
X6.167Y-4.3491G85X6.2182Y-4.3491
G05
X6.167Y-2.3791G85X6.2182Y-2.3791
G05
X6.167Y-2.5641G85X6.2182Y-2.5641
G05
X6.167Y-2.7491G85X6.2182Y-2.7491
G05
X6.167Y-3.1791G85X6.2182Y-3.1791
G05
X6.167Y-3.3641G85X6.2182Y-3.3641
G05
X6.167Y-3.5491G85X6.2182Y-3.5491
G05
T0
M30
