G04 #@! TF.GenerationSoftware,KiCad,Pcbnew,(5.0.0)*
G04 #@! TF.CreationDate,2018-08-20T01:03:39+08:00*
G04 #@! TF.ProjectId,RndSeq,526E645365712E6B696361645F706362,rev?*
G04 #@! TF.SameCoordinates,Original*
G04 #@! TF.FileFunction,Copper,L1,Top,Signal*
G04 #@! TF.FilePolarity,Positive*
%FSLAX46Y46*%
G04 Gerber Fmt 4.6, Leading zero omitted, Abs format (unit mm)*
G04 Created by KiCad (PCBNEW (5.0.0)) date 08/20/18 01:03:39*
%MOMM*%
%LPD*%
G01*
G04 APERTURE LIST*
G04 #@! TA.AperFunction,ComponentPad*
%ADD10R,1.905000X2.000000*%
G04 #@! TD*
G04 #@! TA.AperFunction,ComponentPad*
%ADD11O,1.905000X2.000000*%
G04 #@! TD*
G04 #@! TA.AperFunction,ComponentPad*
%ADD12C,2.000000*%
G04 #@! TD*
G04 #@! TA.AperFunction,ComponentPad*
%ADD13O,1.700000X1.700000*%
G04 #@! TD*
G04 #@! TA.AperFunction,ComponentPad*
%ADD14R,1.700000X1.700000*%
G04 #@! TD*
G04 #@! TA.AperFunction,ComponentPad*
%ADD15R,1.800000X1.800000*%
G04 #@! TD*
G04 #@! TA.AperFunction,ComponentPad*
%ADD16C,1.800000*%
G04 #@! TD*
G04 #@! TA.AperFunction,WasherPad*
%ADD17O,3.000000X2.200000*%
G04 #@! TD*
G04 #@! TA.AperFunction,ComponentPad*
%ADD18O,2.600000X1.500000*%
G04 #@! TD*
G04 #@! TA.AperFunction,ComponentPad*
%ADD19O,2.400000X1.600000*%
G04 #@! TD*
G04 #@! TA.AperFunction,ComponentPad*
%ADD20O,2.600000X1.600000*%
G04 #@! TD*
G04 #@! TA.AperFunction,ComponentPad*
%ADD21O,3.556000X2.032000*%
G04 #@! TD*
G04 #@! TA.AperFunction,ViaPad*
%ADD22C,0.800000*%
G04 #@! TD*
G04 #@! TA.AperFunction,Conductor*
%ADD23C,0.254000*%
G04 #@! TD*
G04 #@! TA.AperFunction,Conductor*
%ADD24C,0.508000*%
G04 #@! TD*
G04 APERTURE END LIST*
D10*
G04 #@! TO.P,U3,1*
G04 #@! TO.N,+12V*
X149672040Y-79098140D03*
D11*
G04 #@! TO.P,U3,2*
G04 #@! TO.N,GND*
X147132040Y-79098140D03*
G04 #@! TO.P,U3,3*
G04 #@! TO.N,+5V*
X144592040Y-79098140D03*
G04 #@! TD*
D12*
G04 #@! TO.P,SW6,2*
G04 #@! TO.N,GND*
X143830040Y-152686140D03*
G04 #@! TO.P,SW6,1*
G04 #@! TO.N,Net-(J2-Pad5)*
X143830040Y-148186140D03*
G04 #@! TO.P,SW6,2*
G04 #@! TO.N,GND*
X150330040Y-152686140D03*
G04 #@! TO.P,SW6,1*
G04 #@! TO.N,Net-(J2-Pad5)*
X150330040Y-148186140D03*
G04 #@! TD*
D13*
G04 #@! TO.P,I2C,3*
G04 #@! TO.N,SDA*
X129987040Y-96878140D03*
G04 #@! TO.P,I2C,2*
G04 #@! TO.N,SCL*
X129987040Y-94338140D03*
D14*
G04 #@! TO.P,I2C,1*
G04 #@! TO.N,GND*
X129987040Y-91798140D03*
G04 #@! TD*
G04 #@! TO.P,SERIAL,1*
G04 #@! TO.N,GND*
X129987040Y-81003140D03*
D13*
G04 #@! TO.P,SERIAL,2*
G04 #@! TO.N,/MCU328/TXD/PD1*
X129987040Y-83543140D03*
G04 #@! TO.P,SERIAL,3*
G04 #@! TO.N,/MCU328/RXD/PD0*
X129987040Y-86083140D03*
G04 #@! TD*
D14*
G04 #@! TO.P,ISP,1*
G04 #@! TO.N,Net-(J2-Pad1)*
X132146040Y-103228140D03*
D13*
G04 #@! TO.P,ISP,2*
G04 #@! TO.N,+5V*
X129606040Y-103228140D03*
G04 #@! TO.P,ISP,3*
G04 #@! TO.N,Net-(J2-Pad3)*
X132146040Y-105768140D03*
G04 #@! TO.P,ISP,4*
G04 #@! TO.N,Net-(J2-Pad4)*
X129606040Y-105768140D03*
G04 #@! TO.P,ISP,5*
G04 #@! TO.N,Net-(J2-Pad5)*
X132146040Y-108308140D03*
G04 #@! TO.P,ISP,6*
G04 #@! TO.N,GND*
X129606040Y-108308140D03*
G04 #@! TD*
D14*
G04 #@! TO.P,J4,1*
G04 #@! TO.N,Net-(D11-Pad1)*
X145862040Y-71478140D03*
D13*
G04 #@! TO.P,J4,2*
X148402040Y-71478140D03*
G04 #@! TO.P,J4,3*
G04 #@! TO.N,GND*
X145862040Y-68938140D03*
G04 #@! TO.P,J4,4*
X148402040Y-68938140D03*
G04 #@! TO.P,J4,5*
X145862040Y-66398140D03*
G04 #@! TO.P,J4,6*
X148402040Y-66398140D03*
G04 #@! TO.P,J4,7*
X145862040Y-63858140D03*
G04 #@! TO.P,J4,8*
X148402040Y-63858140D03*
G04 #@! TO.P,J4,9*
G04 #@! TO.N,Net-(D10-Pad2)*
X145862040Y-61318140D03*
G04 #@! TO.P,J4,10*
X148402040Y-61318140D03*
G04 #@! TD*
D15*
G04 #@! TO.P,D9,1*
G04 #@! TO.N,GND*
X156022040Y-136248140D03*
D16*
G04 #@! TO.P,D9,2*
G04 #@! TO.N,Net-(D9-Pad2)*
X158562040Y-136248140D03*
G04 #@! TD*
G04 #@! TO.P,D8,2*
G04 #@! TO.N,Net-(D8-Pad2)*
X148402040Y-143868140D03*
D15*
G04 #@! TO.P,D8,1*
G04 #@! TO.N,GND*
X145862040Y-143868140D03*
G04 #@! TD*
G04 #@! TO.P,D5,1*
G04 #@! TO.N,GND*
X145862040Y-128628140D03*
D16*
G04 #@! TO.P,D5,2*
G04 #@! TO.N,Net-(D5-Pad2)*
X148402040Y-128628140D03*
G04 #@! TD*
D15*
G04 #@! TO.P,D6,1*
G04 #@! TO.N,GND*
X145862040Y-133708140D03*
D16*
G04 #@! TO.P,D6,2*
G04 #@! TO.N,Net-(D6-Pad2)*
X148402040Y-133708140D03*
G04 #@! TD*
D15*
G04 #@! TO.P,D7,1*
G04 #@! TO.N,GND*
X145862040Y-138788140D03*
D16*
G04 #@! TO.P,D7,2*
G04 #@! TO.N,Net-(D7-Pad2)*
X148402040Y-138788140D03*
G04 #@! TD*
D17*
G04 #@! TO.P,RV1,*
G04 #@! TO.N,*
X132172040Y-65128140D03*
D16*
G04 #@! TO.P,RV1,1*
G04 #@! TO.N,+5V*
X139472040Y-72628150D03*
G04 #@! TO.P,RV1,2*
G04 #@! TO.N,/MCU328/PC0*
X137012040Y-72628150D03*
G04 #@! TO.P,RV1,3*
G04 #@! TO.N,GND*
X134472040Y-72628150D03*
D17*
G04 #@! TO.P,RV1,*
G04 #@! TO.N,*
X141772040Y-65128140D03*
G04 #@! TD*
D18*
G04 #@! TO.P,J-Out1,T*
G04 #@! TO.N,Net-(J-Out1-PadT)*
X157292040Y-121168140D03*
D19*
G04 #@! TO.P,J-Out1,S*
G04 #@! TO.N,GND*
X157292040Y-132568140D03*
D20*
G04 #@! TO.P,J-Out1,TN*
G04 #@! TO.N,Net-(J-Out1-PadTN)*
X157292040Y-129468140D03*
G04 #@! TD*
G04 #@! TO.P,J-Clk1,TN*
G04 #@! TO.N,+5V*
X136972040Y-149788140D03*
D19*
G04 #@! TO.P,J-Clk1,S*
G04 #@! TO.N,GND*
X136972040Y-152888140D03*
D18*
G04 #@! TO.P,J-Clk1,T*
G04 #@! TO.N,Net-(J-Clk1-PadT)*
X136972040Y-141488140D03*
G04 #@! TD*
G04 #@! TO.P,J-CV1,T*
G04 #@! TO.N,Net-(J-CV1-PadT)*
X136972040Y-121168140D03*
D19*
G04 #@! TO.P,J-CV1,S*
G04 #@! TO.N,GND*
X136972040Y-132568140D03*
D20*
G04 #@! TO.P,J-CV1,TN*
X136972040Y-129468140D03*
G04 #@! TD*
G04 #@! TO.P,J-Trig1,TN*
G04 #@! TO.N,Net-(J-Trig1-PadTN)*
X157292040Y-149788140D03*
D19*
G04 #@! TO.P,J-Trig1,S*
G04 #@! TO.N,GND*
X157292040Y-152888140D03*
D18*
G04 #@! TO.P,J-Trig1,T*
G04 #@! TO.N,Net-(J-Trig1-PadT)*
X157292040Y-141488140D03*
G04 #@! TD*
D21*
G04 #@! TO.P,SW1,3*
G04 #@! TO.N,/MCU328/PC3*
X157292040Y-60428140D03*
G04 #@! TO.P,SW1,2*
G04 #@! TO.N,GND*
X157292040Y-65128140D03*
G04 #@! TO.P,SW1,1*
G04 #@! TO.N,/MCU328/PC2*
X157292040Y-69828140D03*
G04 #@! TD*
G04 #@! TO.P,SW4,1*
G04 #@! TO.N,Net-(R4-Pad2)*
X136972040Y-110468140D03*
G04 #@! TO.P,SW4,2*
G04 #@! TO.N,GND*
X136972040Y-105768140D03*
G04 #@! TO.P,SW4,3*
G04 #@! TO.N,Net-(R13-Pad2)*
X136972040Y-101068140D03*
G04 #@! TD*
G04 #@! TO.P,SW2,3*
G04 #@! TO.N,Net-(R11-Pad2)*
X136972040Y-80748140D03*
G04 #@! TO.P,SW2,2*
G04 #@! TO.N,GND*
X136972040Y-85448140D03*
G04 #@! TO.P,SW2,1*
G04 #@! TO.N,Net-(R2-Pad2)*
X136972040Y-90148140D03*
G04 #@! TD*
G04 #@! TO.P,SW3,1*
G04 #@! TO.N,Net-(R3-Pad2)*
X157292040Y-90148140D03*
G04 #@! TO.P,SW3,2*
G04 #@! TO.N,GND*
X157292040Y-85448140D03*
G04 #@! TO.P,SW3,3*
G04 #@! TO.N,Net-(R12-Pad2)*
X157292040Y-80748140D03*
G04 #@! TD*
G04 #@! TO.P,SW5,3*
G04 #@! TO.N,Net-(R14-Pad2)*
X157292040Y-101068140D03*
G04 #@! TO.P,SW5,2*
G04 #@! TO.N,GND*
X157292040Y-105768140D03*
G04 #@! TO.P,SW5,1*
G04 #@! TO.N,Net-(R5-Pad2)*
X157292040Y-110468140D03*
G04 #@! TD*
D22*
G04 #@! TO.N,Net-(R13-Pad2)*
X149926040Y-107673140D03*
X142679782Y-106120398D03*
G04 #@! TO.N,Net-(R12-Pad2)*
X140279531Y-102902175D03*
X147894040Y-89004140D03*
G04 #@! TO.N,Net-(R11-Pad2)*
X151069040Y-82273140D03*
X142814040Y-82019140D03*
G04 #@! TO.N,+5V*
X128590040Y-118722140D03*
X128463040Y-89004140D03*
X154389789Y-89112391D03*
X135575040Y-76431140D03*
G04 #@! TO.N,Net-(R4-Pad2)*
X143449040Y-112626140D03*
X150815040Y-110975140D03*
G04 #@! TO.N,Net-(R3-Pad2)*
X162753040Y-93068140D03*
X162753040Y-97767140D03*
X143957040Y-111610140D03*
X149564072Y-110467140D03*
G04 #@! TO.N,Net-(R2-Pad2)*
X141417040Y-85321140D03*
X149500000Y-84500000D03*
G04 #@! TO.N,/MCU328/PC2*
X141417040Y-89512140D03*
X148700000Y-87200000D03*
G04 #@! TO.N,Net-(J2-Pad5)*
X134451040Y-104244140D03*
X131511040Y-120754140D03*
X140528040Y-91544140D03*
X142985302Y-91588393D03*
X135321040Y-92814140D03*
G04 #@! TO.N,Net-(C12-Pad1)*
X162753040Y-113388140D03*
X162753040Y-116182140D03*
G04 #@! TO.N,SDA*
X143957040Y-95608140D03*
X140147040Y-95608140D03*
G04 #@! TO.N,SCL*
X145100040Y-94395826D03*
X140274040Y-94338140D03*
G04 #@! TO.N,/MCU328/PD3*
X151069040Y-116817140D03*
X150815040Y-106149140D03*
X147894040Y-95227140D03*
X151035529Y-113488700D03*
G04 #@! TO.N,/MCU328/PB1*
X150307040Y-95608140D03*
X154752040Y-95608140D03*
G04 #@! TO.N,/MCU328/PD2*
X139131040Y-107292140D03*
X147032040Y-96468140D03*
G04 #@! TO.N,+12V*
X160594040Y-78209140D03*
X145862040Y-109197140D03*
G04 #@! TO.N,-12V*
X144465040Y-75143140D03*
X149799040Y-118468140D03*
G04 #@! TO.N,/MCU328/PC0*
X146116040Y-93576140D03*
X144600000Y-89100000D03*
G04 #@! TO.N,GND*
X147152907Y-103736191D03*
X153732040Y-92068140D03*
X152632040Y-92068140D03*
X164932040Y-73468140D03*
X163332040Y-73468140D03*
X132332040Y-68268140D03*
X130432040Y-68268140D03*
X145632040Y-97968140D03*
X145632040Y-96968140D03*
X142432040Y-102068140D03*
X143195040Y-108308140D03*
X143383000Y-118745000D03*
X149733000Y-124968000D03*
X152908000Y-120142000D03*
X156800000Y-115100000D03*
X156800000Y-115100000D03*
X156800000Y-115100000D03*
X156800000Y-125200000D03*
X165400000Y-128700000D03*
X129800000Y-131400000D03*
X137200000Y-146100000D03*
X140900000Y-137600000D03*
X157200000Y-144700000D03*
X154100000Y-99700000D03*
X163000000Y-84500000D03*
X150300000Y-86600000D03*
X129700000Y-57900000D03*
G04 #@! TD*
D23*
G04 #@! TO.N,Net-(R13-Pad2)*
X149926040Y-107673140D02*
X144232524Y-107673140D01*
X144232524Y-107673140D02*
X143079781Y-106520397D01*
X143079781Y-106520397D02*
X142679782Y-106120398D01*
G04 #@! TO.N,Net-(R12-Pad2)*
X147894040Y-93406140D02*
X147894040Y-89004140D01*
X140279531Y-102902175D02*
X140279531Y-101020649D01*
X140279531Y-101020649D02*
X147894040Y-93406140D01*
G04 #@! TO.N,Net-(R11-Pad2)*
X143068040Y-82273140D02*
X150503355Y-82273140D01*
X142814040Y-82019140D02*
X143068040Y-82273140D01*
X150503355Y-82273140D02*
X151069040Y-82273140D01*
D24*
G04 #@! TO.N,+5V*
X129606040Y-103228140D02*
X127915050Y-104919130D01*
X127915050Y-104919130D02*
X127915050Y-118047150D01*
X127915050Y-118047150D02*
X128590040Y-118722140D01*
X127915050Y-101537150D02*
X127915050Y-89552130D01*
X129606040Y-103228140D02*
X127915050Y-101537150D01*
X127915050Y-89552130D02*
X128463040Y-89004140D01*
X129225040Y-76431140D02*
X135575040Y-76431140D01*
X127915050Y-88456150D02*
X127915050Y-77741130D01*
X127915050Y-77741130D02*
X129225040Y-76431140D01*
X128463040Y-89004140D02*
X127915050Y-88456150D01*
X144592040Y-77447140D02*
X144592040Y-79098140D01*
X145481040Y-76558140D02*
X144592040Y-77447140D01*
X154389789Y-89112391D02*
X154371040Y-89093642D01*
X154371040Y-89093642D02*
X154371040Y-78463140D01*
X154371040Y-78463140D02*
X152466040Y-76558140D01*
X152466040Y-76558140D02*
X145481040Y-76558140D01*
D23*
G04 #@! TO.N,Net-(R4-Pad2)*
X143576040Y-112499140D02*
X143449040Y-112626140D01*
X149300860Y-112499140D02*
X143576040Y-112499140D01*
X150815040Y-110975140D02*
X150815040Y-110984960D01*
X150815040Y-110984960D02*
X149300860Y-112499140D01*
G04 #@! TO.N,Net-(R3-Pad2)*
X162753040Y-97767140D02*
X162753040Y-93068140D01*
X149564072Y-111035928D02*
X149564072Y-110467140D01*
X148800000Y-111800000D02*
X149564072Y-111035928D01*
X143957040Y-111610140D02*
X144146900Y-111800000D01*
X144146900Y-111800000D02*
X148800000Y-111800000D01*
G04 #@! TO.N,Net-(R2-Pad2)*
X142227540Y-84510640D02*
X141417040Y-85321140D01*
X149500000Y-84500000D02*
X142227540Y-84510640D01*
G04 #@! TO.N,/MCU328/PC2*
X143673541Y-87255639D02*
X141417040Y-89512140D01*
X148700000Y-87200000D02*
X143673541Y-87255639D01*
G04 #@! TO.N,Net-(J2-Pad5)*
X131511040Y-120754140D02*
X131511040Y-108943140D01*
X131511040Y-108943140D02*
X132146040Y-108308140D01*
X140528040Y-91544140D02*
X142941049Y-91544140D01*
X142941049Y-91544140D02*
X142985302Y-91588393D01*
X134432040Y-98783140D02*
X134432040Y-104225140D01*
X134432040Y-104225140D02*
X134451040Y-104244140D01*
X135321040Y-97894140D02*
X134432040Y-98783140D01*
X135321040Y-92814140D02*
X135321040Y-97894140D01*
G04 #@! TO.N,Net-(C12-Pad1)*
X162753040Y-116182140D02*
X162753040Y-113388140D01*
G04 #@! TO.N,SDA*
X143957040Y-95608140D02*
X140147040Y-95608140D01*
G04 #@! TO.N,SCL*
X145100040Y-94395826D02*
X140331726Y-94395826D01*
X140331726Y-94395826D02*
X140274040Y-94338140D01*
G04 #@! TO.N,/MCU328/PD3*
X147894040Y-103228140D02*
X150815040Y-106149140D01*
X147894040Y-95227140D02*
X147894040Y-103228140D01*
X151069040Y-116817140D02*
X151069040Y-113522211D01*
X151069040Y-113522211D02*
X151035529Y-113488700D01*
G04 #@! TO.N,/MCU328/PB1*
X150307040Y-95608140D02*
X154752040Y-95608140D01*
G04 #@! TO.N,/MCU328/PD2*
X143449040Y-102974140D02*
X139131040Y-107292140D01*
X147032040Y-96468140D02*
X147032040Y-99391140D01*
X147032040Y-99391140D02*
X143449040Y-102974140D01*
D24*
G04 #@! TO.N,+12V*
X161610040Y-78209140D02*
X160594040Y-78209140D01*
X165039040Y-81638140D02*
X161610040Y-78209140D01*
X165039040Y-107165140D02*
X165039040Y-81638140D01*
X163515040Y-108689140D02*
X165039040Y-107165140D01*
X145862040Y-109197140D02*
X146370040Y-108689140D01*
X146370040Y-108689140D02*
X163515040Y-108689140D01*
G04 #@! TO.N,-12V*
X144465040Y-75143140D02*
X159941040Y-75143140D01*
X159941040Y-75143140D02*
X165928040Y-81130140D01*
X165928040Y-81130140D02*
X165928040Y-117071140D01*
X164531040Y-118468140D02*
X149799040Y-118468140D01*
X165928040Y-117071140D02*
X164531040Y-118468140D01*
D23*
G04 #@! TO.N,/MCU328/PC0*
X146116040Y-90216040D02*
X146116040Y-93576140D01*
X144600000Y-89100000D02*
X145000000Y-89100000D01*
X145000000Y-89100000D02*
X146116040Y-90216040D01*
G04 #@! TD*
G04 #@! TO.N,GND*
G36*
X166222040Y-80166904D02*
X160631571Y-74576436D01*
X160581973Y-74502207D01*
X160287910Y-74305721D01*
X160028596Y-74254140D01*
X160028595Y-74254140D01*
X159941040Y-74236724D01*
X159853485Y-74254140D01*
X145023390Y-74254140D01*
X144670914Y-74108140D01*
X144259166Y-74108140D01*
X143878760Y-74265709D01*
X143587609Y-74556860D01*
X143430040Y-74937266D01*
X143430040Y-75349014D01*
X143587609Y-75729420D01*
X143878760Y-76020571D01*
X144259166Y-76178140D01*
X144603804Y-76178140D01*
X144025336Y-76756609D01*
X143951107Y-76806207D01*
X143754621Y-77100271D01*
X143710886Y-77320140D01*
X143685624Y-77447140D01*
X143703040Y-77534695D01*
X143703040Y-77735382D01*
X143447517Y-77906117D01*
X143096649Y-78431229D01*
X143004540Y-78894290D01*
X143004540Y-79301989D01*
X143096649Y-79765050D01*
X143447517Y-80290163D01*
X143972629Y-80641031D01*
X144592040Y-80764240D01*
X145211450Y-80641031D01*
X145736563Y-80290163D01*
X145871199Y-80088666D01*
X146265116Y-80474113D01*
X146759060Y-80688703D01*
X147005040Y-80568734D01*
X147005040Y-79225140D01*
X146985040Y-79225140D01*
X146985040Y-78971140D01*
X147005040Y-78971140D01*
X147005040Y-77627546D01*
X147259040Y-77627546D01*
X147259040Y-78971140D01*
X147279040Y-78971140D01*
X147279040Y-79225140D01*
X147259040Y-79225140D01*
X147259040Y-80568734D01*
X147505020Y-80688703D01*
X147998964Y-80474113D01*
X148124785Y-80350997D01*
X148261731Y-80555949D01*
X148471775Y-80696297D01*
X148719540Y-80745580D01*
X150624540Y-80745580D01*
X150872305Y-80696297D01*
X151082349Y-80555949D01*
X151222697Y-80345905D01*
X151271980Y-80098140D01*
X151271980Y-78098140D01*
X151222697Y-77850375D01*
X151082349Y-77640331D01*
X150872305Y-77499983D01*
X150624540Y-77450700D01*
X148719540Y-77450700D01*
X148471775Y-77499983D01*
X148261731Y-77640331D01*
X148124785Y-77845283D01*
X147998964Y-77722167D01*
X147505020Y-77507577D01*
X147259040Y-77627546D01*
X147005040Y-77627546D01*
X146759060Y-77507577D01*
X146265116Y-77722167D01*
X145871199Y-78107614D01*
X145736563Y-77906117D01*
X145528992Y-77767423D01*
X145849276Y-77447140D01*
X152097805Y-77447140D01*
X153482041Y-78831377D01*
X153482040Y-88599305D01*
X153354789Y-88906517D01*
X153354789Y-89318265D01*
X153512358Y-89698671D01*
X153803509Y-89989822D01*
X154183915Y-90147391D01*
X154595663Y-90147391D01*
X154869398Y-90034007D01*
X154846695Y-90148140D01*
X154974832Y-90792328D01*
X155339735Y-91338445D01*
X155885852Y-91703348D01*
X156367431Y-91799140D01*
X158216649Y-91799140D01*
X158698228Y-91703348D01*
X159244345Y-91338445D01*
X159609248Y-90792328D01*
X159737385Y-90148140D01*
X159609248Y-89503952D01*
X159244345Y-88957835D01*
X158698228Y-88592932D01*
X158216649Y-88497140D01*
X156367431Y-88497140D01*
X155885852Y-88592932D01*
X155423000Y-88902199D01*
X155267220Y-88526111D01*
X155260040Y-88518931D01*
X155260040Y-86503072D01*
X155272804Y-86525770D01*
X155780897Y-86924864D01*
X156403040Y-87099140D01*
X157165040Y-87099140D01*
X157165040Y-85575140D01*
X157419040Y-85575140D01*
X157419040Y-87099140D01*
X158181040Y-87099140D01*
X158803183Y-86924864D01*
X159311276Y-86525770D01*
X159627966Y-85962617D01*
X159660015Y-85831084D01*
X159540876Y-85575140D01*
X157419040Y-85575140D01*
X157165040Y-85575140D01*
X157145040Y-85575140D01*
X157145040Y-85321140D01*
X157165040Y-85321140D01*
X157165040Y-83797140D01*
X157419040Y-83797140D01*
X157419040Y-85321140D01*
X159540876Y-85321140D01*
X159660015Y-85065196D01*
X159627966Y-84933663D01*
X159311276Y-84370510D01*
X158803183Y-83971416D01*
X158181040Y-83797140D01*
X157419040Y-83797140D01*
X157165040Y-83797140D01*
X156403040Y-83797140D01*
X155780897Y-83971416D01*
X155272804Y-84370510D01*
X155260040Y-84393208D01*
X155260040Y-81819173D01*
X155339735Y-81938445D01*
X155885852Y-82303348D01*
X156367431Y-82399140D01*
X158216649Y-82399140D01*
X158698228Y-82303348D01*
X159244345Y-81938445D01*
X159609248Y-81392328D01*
X159737385Y-80748140D01*
X159609248Y-80103952D01*
X159244345Y-79557835D01*
X158698228Y-79192932D01*
X158216649Y-79097140D01*
X156367431Y-79097140D01*
X155885852Y-79192932D01*
X155339735Y-79557835D01*
X155260040Y-79677107D01*
X155260040Y-78550695D01*
X155277456Y-78463140D01*
X155255658Y-78353556D01*
X155208459Y-78116270D01*
X155011973Y-77822207D01*
X154937747Y-77772611D01*
X153197275Y-76032140D01*
X159572805Y-76032140D01*
X160714805Y-77174140D01*
X160388166Y-77174140D01*
X160007760Y-77331709D01*
X159716609Y-77622860D01*
X159559040Y-78003266D01*
X159559040Y-78415014D01*
X159716609Y-78795420D01*
X160007760Y-79086571D01*
X160388166Y-79244140D01*
X160799914Y-79244140D01*
X161152390Y-79098140D01*
X161241805Y-79098140D01*
X164150041Y-82006377D01*
X164150040Y-106796904D01*
X163146805Y-107800140D01*
X150961040Y-107800140D01*
X150961040Y-107467266D01*
X150843766Y-107184140D01*
X151020914Y-107184140D01*
X151401320Y-107026571D01*
X151692471Y-106735420D01*
X151850040Y-106355014D01*
X151850040Y-106151084D01*
X154924065Y-106151084D01*
X154956114Y-106282617D01*
X155272804Y-106845770D01*
X155780897Y-107244864D01*
X156403040Y-107419140D01*
X157165040Y-107419140D01*
X157165040Y-105895140D01*
X157419040Y-105895140D01*
X157419040Y-107419140D01*
X158181040Y-107419140D01*
X158803183Y-107244864D01*
X159311276Y-106845770D01*
X159627966Y-106282617D01*
X159660015Y-106151084D01*
X159540876Y-105895140D01*
X157419040Y-105895140D01*
X157165040Y-105895140D01*
X155043204Y-105895140D01*
X154924065Y-106151084D01*
X151850040Y-106151084D01*
X151850040Y-105943266D01*
X151692471Y-105562860D01*
X151514807Y-105385196D01*
X154924065Y-105385196D01*
X155043204Y-105641140D01*
X157165040Y-105641140D01*
X157165040Y-104117140D01*
X157419040Y-104117140D01*
X157419040Y-105641140D01*
X159540876Y-105641140D01*
X159660015Y-105385196D01*
X159627966Y-105253663D01*
X159311276Y-104690510D01*
X158803183Y-104291416D01*
X158181040Y-104117140D01*
X157419040Y-104117140D01*
X157165040Y-104117140D01*
X156403040Y-104117140D01*
X155780897Y-104291416D01*
X155272804Y-104690510D01*
X154956114Y-105253663D01*
X154924065Y-105385196D01*
X151514807Y-105385196D01*
X151401320Y-105271709D01*
X151020914Y-105114140D01*
X150857671Y-105114140D01*
X148656040Y-102912510D01*
X148656040Y-101068140D01*
X154846695Y-101068140D01*
X154974832Y-101712328D01*
X155339735Y-102258445D01*
X155885852Y-102623348D01*
X156367431Y-102719140D01*
X158216649Y-102719140D01*
X158698228Y-102623348D01*
X159244345Y-102258445D01*
X159609248Y-101712328D01*
X159737385Y-101068140D01*
X159609248Y-100423952D01*
X159244345Y-99877835D01*
X158698228Y-99512932D01*
X158216649Y-99417140D01*
X156367431Y-99417140D01*
X155885852Y-99512932D01*
X155339735Y-99877835D01*
X154974832Y-100423952D01*
X154846695Y-101068140D01*
X148656040Y-101068140D01*
X148656040Y-95928851D01*
X148771471Y-95813420D01*
X148929040Y-95433014D01*
X148929040Y-95402266D01*
X149272040Y-95402266D01*
X149272040Y-95814014D01*
X149429609Y-96194420D01*
X149720760Y-96485571D01*
X150101166Y-96643140D01*
X150512914Y-96643140D01*
X150893320Y-96485571D01*
X151008751Y-96370140D01*
X154050329Y-96370140D01*
X154165760Y-96485571D01*
X154546166Y-96643140D01*
X154957914Y-96643140D01*
X155338320Y-96485571D01*
X155629471Y-96194420D01*
X155787040Y-95814014D01*
X155787040Y-95402266D01*
X155629471Y-95021860D01*
X155338320Y-94730709D01*
X154957914Y-94573140D01*
X154546166Y-94573140D01*
X154165760Y-94730709D01*
X154050329Y-94846140D01*
X151008751Y-94846140D01*
X150893320Y-94730709D01*
X150512914Y-94573140D01*
X150101166Y-94573140D01*
X149720760Y-94730709D01*
X149429609Y-95021860D01*
X149272040Y-95402266D01*
X148929040Y-95402266D01*
X148929040Y-95021266D01*
X148771471Y-94640860D01*
X148480320Y-94349709D01*
X148160553Y-94217258D01*
X148379790Y-93998021D01*
X148443411Y-93955511D01*
X148611828Y-93703457D01*
X148656040Y-93481188D01*
X148656040Y-93481183D01*
X148670967Y-93406140D01*
X148656040Y-93331097D01*
X148656040Y-92862266D01*
X161718040Y-92862266D01*
X161718040Y-93274014D01*
X161875609Y-93654420D01*
X161991041Y-93769852D01*
X161991040Y-97065429D01*
X161875609Y-97180860D01*
X161718040Y-97561266D01*
X161718040Y-97973014D01*
X161875609Y-98353420D01*
X162166760Y-98644571D01*
X162547166Y-98802140D01*
X162958914Y-98802140D01*
X163339320Y-98644571D01*
X163630471Y-98353420D01*
X163788040Y-97973014D01*
X163788040Y-97561266D01*
X163630471Y-97180860D01*
X163515040Y-97065429D01*
X163515040Y-93769851D01*
X163630471Y-93654420D01*
X163788040Y-93274014D01*
X163788040Y-92862266D01*
X163630471Y-92481860D01*
X163339320Y-92190709D01*
X162958914Y-92033140D01*
X162547166Y-92033140D01*
X162166760Y-92190709D01*
X161875609Y-92481860D01*
X161718040Y-92862266D01*
X148656040Y-92862266D01*
X148656040Y-89705851D01*
X148771471Y-89590420D01*
X148929040Y-89210014D01*
X148929040Y-88798266D01*
X148771471Y-88417860D01*
X148588611Y-88235000D01*
X148905874Y-88235000D01*
X149286280Y-88077431D01*
X149577431Y-87786280D01*
X149735000Y-87405874D01*
X149735000Y-86994126D01*
X149577431Y-86613720D01*
X149286280Y-86322569D01*
X148905874Y-86165000D01*
X148494126Y-86165000D01*
X148113720Y-86322569D01*
X147990481Y-86445808D01*
X143744408Y-86492809D01*
X143673540Y-86478712D01*
X143594319Y-86494470D01*
X143590064Y-86494517D01*
X143520742Y-86509105D01*
X143376222Y-86537852D01*
X143372581Y-86540285D01*
X143368298Y-86541186D01*
X143246744Y-86624367D01*
X143187792Y-86663757D01*
X143184780Y-86666769D01*
X143118123Y-86712383D01*
X143078649Y-86772900D01*
X141374410Y-88477140D01*
X141211166Y-88477140D01*
X140830760Y-88634709D01*
X140539609Y-88925860D01*
X140382040Y-89306266D01*
X140382040Y-89718014D01*
X140539609Y-90098420D01*
X140830760Y-90389571D01*
X141211166Y-90547140D01*
X141622914Y-90547140D01*
X142003320Y-90389571D01*
X142294471Y-90098420D01*
X142452040Y-89718014D01*
X142452040Y-89554770D01*
X143992659Y-88014152D01*
X147677981Y-87973359D01*
X147307760Y-88126709D01*
X147016609Y-88417860D01*
X146859040Y-88798266D01*
X146859040Y-89210014D01*
X147016609Y-89590420D01*
X147132041Y-89705852D01*
X147132040Y-93090509D01*
X147063536Y-93159013D01*
X146993471Y-92989860D01*
X146878040Y-92874429D01*
X146878040Y-90291083D01*
X146892967Y-90216040D01*
X146878040Y-90140997D01*
X146878040Y-90140992D01*
X146833828Y-89918723D01*
X146665411Y-89666669D01*
X146601790Y-89624159D01*
X145591883Y-88614253D01*
X145549371Y-88550629D01*
X145443799Y-88480088D01*
X145186280Y-88222569D01*
X144805874Y-88065000D01*
X144394126Y-88065000D01*
X144013720Y-88222569D01*
X143722569Y-88513720D01*
X143565000Y-88894126D01*
X143565000Y-89305874D01*
X143722569Y-89686280D01*
X144013720Y-89977431D01*
X144394126Y-90135000D01*
X144805874Y-90135000D01*
X144912998Y-90090628D01*
X145354040Y-90531671D01*
X145354041Y-92874428D01*
X145238609Y-92989860D01*
X145084950Y-93360826D01*
X144894166Y-93360826D01*
X144513760Y-93518395D01*
X144398329Y-93633826D01*
X141033437Y-93633826D01*
X140860320Y-93460709D01*
X140479914Y-93303140D01*
X140068166Y-93303140D01*
X139687760Y-93460709D01*
X139396609Y-93751860D01*
X139239040Y-94132266D01*
X139239040Y-94544014D01*
X139387951Y-94903518D01*
X139269609Y-95021860D01*
X139112040Y-95402266D01*
X139112040Y-95814014D01*
X139269609Y-96194420D01*
X139560760Y-96485571D01*
X139941166Y-96643140D01*
X140352914Y-96643140D01*
X140733320Y-96485571D01*
X140848751Y-96370140D01*
X143255329Y-96370140D01*
X143370760Y-96485571D01*
X143629716Y-96592834D01*
X139793782Y-100428768D01*
X139730161Y-100471278D01*
X139687650Y-100534900D01*
X139687649Y-100534901D01*
X139561744Y-100723332D01*
X139502604Y-101020649D01*
X139517532Y-101095697D01*
X139517531Y-102200464D01*
X139402100Y-102315895D01*
X139244531Y-102696301D01*
X139244531Y-103108049D01*
X139402100Y-103488455D01*
X139693251Y-103779606D01*
X140073657Y-103937175D01*
X140485405Y-103937175D01*
X140865811Y-103779606D01*
X141156962Y-103488455D01*
X141314531Y-103108049D01*
X141314531Y-102696301D01*
X141156962Y-102315895D01*
X141041531Y-102200464D01*
X141041531Y-101336279D01*
X145997040Y-96380771D01*
X145997040Y-96674014D01*
X146154609Y-97054420D01*
X146270040Y-97169851D01*
X146270041Y-99075508D01*
X142963294Y-102382256D01*
X142963291Y-102382258D01*
X139293784Y-106051766D01*
X139220876Y-105895140D01*
X137099040Y-105895140D01*
X137099040Y-107419140D01*
X137861040Y-107419140D01*
X138096040Y-107353311D01*
X138096040Y-107498014D01*
X138253609Y-107878420D01*
X138544760Y-108169571D01*
X138925166Y-108327140D01*
X139336914Y-108327140D01*
X139717320Y-108169571D01*
X140008471Y-107878420D01*
X140166040Y-107498014D01*
X140166040Y-107334770D01*
X141686144Y-105814666D01*
X141644782Y-105914524D01*
X141644782Y-106326272D01*
X141802351Y-106706678D01*
X142093502Y-106997829D01*
X142473908Y-107155398D01*
X142637152Y-107155398D01*
X143640642Y-108158889D01*
X143683153Y-108222511D01*
X143935207Y-108390928D01*
X144157476Y-108435140D01*
X144157477Y-108435140D01*
X144232524Y-108450068D01*
X144307571Y-108435140D01*
X145160329Y-108435140D01*
X144984609Y-108610860D01*
X144827040Y-108991266D01*
X144827040Y-109403014D01*
X144984609Y-109783420D01*
X145275760Y-110074571D01*
X145656166Y-110232140D01*
X146067914Y-110232140D01*
X146448320Y-110074571D01*
X146739471Y-109783420D01*
X146824501Y-109578140D01*
X149005722Y-109578140D01*
X148977792Y-109589709D01*
X148686641Y-109880860D01*
X148529072Y-110261266D01*
X148529072Y-110673014D01*
X148622881Y-110899489D01*
X148484370Y-111038000D01*
X144840328Y-111038000D01*
X144834471Y-111023860D01*
X144543320Y-110732709D01*
X144162914Y-110575140D01*
X143751166Y-110575140D01*
X143370760Y-110732709D01*
X143079609Y-111023860D01*
X142922040Y-111404266D01*
X142922040Y-111724154D01*
X142862760Y-111748709D01*
X142571609Y-112039860D01*
X142414040Y-112420266D01*
X142414040Y-112832014D01*
X142571609Y-113212420D01*
X142862760Y-113503571D01*
X143243166Y-113661140D01*
X143654914Y-113661140D01*
X144035320Y-113503571D01*
X144277751Y-113261140D01*
X149225817Y-113261140D01*
X149300860Y-113276067D01*
X149375903Y-113261140D01*
X149375908Y-113261140D01*
X149598177Y-113216928D01*
X149850231Y-113048511D01*
X149892743Y-112984887D01*
X150867491Y-112010140D01*
X151020914Y-112010140D01*
X151401320Y-111852571D01*
X151692471Y-111561420D01*
X151850040Y-111181014D01*
X151850040Y-110769266D01*
X151692471Y-110388860D01*
X151401320Y-110097709D01*
X151020914Y-109940140D01*
X150609166Y-109940140D01*
X150487015Y-109990736D01*
X150441503Y-109880860D01*
X150150352Y-109589709D01*
X150122422Y-109578140D01*
X155139078Y-109578140D01*
X154974832Y-109823952D01*
X154846695Y-110468140D01*
X154974832Y-111112328D01*
X155339735Y-111658445D01*
X155885852Y-112023348D01*
X156367431Y-112119140D01*
X158216649Y-112119140D01*
X158698228Y-112023348D01*
X159244345Y-111658445D01*
X159609248Y-111112328D01*
X159737385Y-110468140D01*
X159609248Y-109823952D01*
X159445002Y-109578140D01*
X163427485Y-109578140D01*
X163515040Y-109595556D01*
X163602595Y-109578140D01*
X163602596Y-109578140D01*
X163861910Y-109526559D01*
X164155973Y-109330073D01*
X164205571Y-109255844D01*
X165039041Y-108422375D01*
X165039041Y-116702903D01*
X164162805Y-117579140D01*
X151770751Y-117579140D01*
X151946471Y-117403420D01*
X152104040Y-117023014D01*
X152104040Y-116611266D01*
X151946471Y-116230860D01*
X151831040Y-116115429D01*
X151831040Y-114156900D01*
X151912960Y-114074980D01*
X152070529Y-113694574D01*
X152070529Y-113282826D01*
X152028876Y-113182266D01*
X161718040Y-113182266D01*
X161718040Y-113594014D01*
X161875609Y-113974420D01*
X161991041Y-114089852D01*
X161991040Y-115480429D01*
X161875609Y-115595860D01*
X161718040Y-115976266D01*
X161718040Y-116388014D01*
X161875609Y-116768420D01*
X162166760Y-117059571D01*
X162547166Y-117217140D01*
X162958914Y-117217140D01*
X163339320Y-117059571D01*
X163630471Y-116768420D01*
X163788040Y-116388014D01*
X163788040Y-115976266D01*
X163630471Y-115595860D01*
X163515040Y-115480429D01*
X163515040Y-114089851D01*
X163630471Y-113974420D01*
X163788040Y-113594014D01*
X163788040Y-113182266D01*
X163630471Y-112801860D01*
X163339320Y-112510709D01*
X162958914Y-112353140D01*
X162547166Y-112353140D01*
X162166760Y-112510709D01*
X161875609Y-112801860D01*
X161718040Y-113182266D01*
X152028876Y-113182266D01*
X151912960Y-112902420D01*
X151621809Y-112611269D01*
X151241403Y-112453700D01*
X150829655Y-112453700D01*
X150449249Y-112611269D01*
X150158098Y-112902420D01*
X150000529Y-113282826D01*
X150000529Y-113694574D01*
X150158098Y-114074980D01*
X150307041Y-114223923D01*
X150307040Y-116115429D01*
X150191609Y-116230860D01*
X150034040Y-116611266D01*
X150034040Y-117023014D01*
X150191609Y-117403420D01*
X150367329Y-117579140D01*
X150357390Y-117579140D01*
X150004914Y-117433140D01*
X149593166Y-117433140D01*
X149212760Y-117590709D01*
X148921609Y-117881860D01*
X148764040Y-118262266D01*
X148764040Y-118674014D01*
X148921609Y-119054420D01*
X149212760Y-119345571D01*
X149593166Y-119503140D01*
X150004914Y-119503140D01*
X150357390Y-119357140D01*
X164443485Y-119357140D01*
X164531040Y-119374556D01*
X164618595Y-119357140D01*
X164618596Y-119357140D01*
X164877910Y-119305559D01*
X165171973Y-119109073D01*
X165221571Y-119034844D01*
X166222041Y-118034375D01*
X166222041Y-155058140D01*
X128042040Y-155058140D01*
X128042040Y-153237179D01*
X135180136Y-153237179D01*
X135197673Y-153319959D01*
X135467540Y-153813036D01*
X135905557Y-154165306D01*
X136445040Y-154323140D01*
X136845040Y-154323140D01*
X136845040Y-153015140D01*
X137099040Y-153015140D01*
X137099040Y-154323140D01*
X137499040Y-154323140D01*
X138038523Y-154165306D01*
X138444663Y-153838672D01*
X142857113Y-153838672D01*
X142955776Y-154105527D01*
X143565501Y-154332048D01*
X144215500Y-154307996D01*
X144704304Y-154105527D01*
X144802967Y-153838672D01*
X149357113Y-153838672D01*
X149455776Y-154105527D01*
X150065501Y-154332048D01*
X150715500Y-154307996D01*
X151204304Y-154105527D01*
X151302967Y-153838672D01*
X150330040Y-152865745D01*
X149357113Y-153838672D01*
X144802967Y-153838672D01*
X143830040Y-152865745D01*
X142857113Y-153838672D01*
X138444663Y-153838672D01*
X138476540Y-153813036D01*
X138746407Y-153319959D01*
X138763944Y-153237179D01*
X138641955Y-153015140D01*
X137099040Y-153015140D01*
X136845040Y-153015140D01*
X135302125Y-153015140D01*
X135180136Y-153237179D01*
X128042040Y-153237179D01*
X128042040Y-152539101D01*
X135180136Y-152539101D01*
X135302125Y-152761140D01*
X136845040Y-152761140D01*
X136845040Y-151453140D01*
X137099040Y-151453140D01*
X137099040Y-152761140D01*
X138641955Y-152761140D01*
X138763944Y-152539101D01*
X138746407Y-152456321D01*
X138727405Y-152421601D01*
X142184132Y-152421601D01*
X142208184Y-153071600D01*
X142410653Y-153560404D01*
X142677508Y-153659067D01*
X143650435Y-152686140D01*
X144009645Y-152686140D01*
X144982572Y-153659067D01*
X145249427Y-153560404D01*
X145475948Y-152950679D01*
X145456371Y-152421601D01*
X148684132Y-152421601D01*
X148708184Y-153071600D01*
X148910653Y-153560404D01*
X149177508Y-153659067D01*
X150150435Y-152686140D01*
X150509645Y-152686140D01*
X151482572Y-153659067D01*
X151749427Y-153560404D01*
X151869509Y-153237179D01*
X155500136Y-153237179D01*
X155517673Y-153319959D01*
X155787540Y-153813036D01*
X156225557Y-154165306D01*
X156765040Y-154323140D01*
X157165040Y-154323140D01*
X157165040Y-153015140D01*
X157419040Y-153015140D01*
X157419040Y-154323140D01*
X157819040Y-154323140D01*
X158358523Y-154165306D01*
X158796540Y-153813036D01*
X159066407Y-153319959D01*
X159083944Y-153237179D01*
X158961955Y-153015140D01*
X157419040Y-153015140D01*
X157165040Y-153015140D01*
X155622125Y-153015140D01*
X155500136Y-153237179D01*
X151869509Y-153237179D01*
X151975948Y-152950679D01*
X151960719Y-152539101D01*
X155500136Y-152539101D01*
X155622125Y-152761140D01*
X157165040Y-152761140D01*
X157165040Y-151453140D01*
X157419040Y-151453140D01*
X157419040Y-152761140D01*
X158961955Y-152761140D01*
X159083944Y-152539101D01*
X159066407Y-152456321D01*
X158796540Y-151963244D01*
X158358523Y-151610974D01*
X157819040Y-151453140D01*
X157419040Y-151453140D01*
X157165040Y-151453140D01*
X156765040Y-151453140D01*
X156225557Y-151610974D01*
X155787540Y-151963244D01*
X155517673Y-152456321D01*
X155500136Y-152539101D01*
X151960719Y-152539101D01*
X151951896Y-152300680D01*
X151749427Y-151811876D01*
X151482572Y-151713213D01*
X150509645Y-152686140D01*
X150150435Y-152686140D01*
X149177508Y-151713213D01*
X148910653Y-151811876D01*
X148684132Y-152421601D01*
X145456371Y-152421601D01*
X145451896Y-152300680D01*
X145249427Y-151811876D01*
X144982572Y-151713213D01*
X144009645Y-152686140D01*
X143650435Y-152686140D01*
X142677508Y-151713213D01*
X142410653Y-151811876D01*
X142184132Y-152421601D01*
X138727405Y-152421601D01*
X138476540Y-151963244D01*
X138038523Y-151610974D01*
X137774083Y-151533608D01*
X142857113Y-151533608D01*
X143830040Y-152506535D01*
X144802967Y-151533608D01*
X149357113Y-151533608D01*
X150330040Y-152506535D01*
X151302967Y-151533608D01*
X151204304Y-151266753D01*
X150594579Y-151040232D01*
X149944580Y-151064284D01*
X149455776Y-151266753D01*
X149357113Y-151533608D01*
X144802967Y-151533608D01*
X144704304Y-151266753D01*
X144094579Y-151040232D01*
X143444580Y-151064284D01*
X142955776Y-151266753D01*
X142857113Y-151533608D01*
X137774083Y-151533608D01*
X137499040Y-151453140D01*
X137099040Y-151453140D01*
X136845040Y-151453140D01*
X136445040Y-151453140D01*
X135905557Y-151610974D01*
X135467540Y-151963244D01*
X135197673Y-152456321D01*
X135180136Y-152539101D01*
X128042040Y-152539101D01*
X128042040Y-149788140D01*
X135008927Y-149788140D01*
X135120300Y-150348049D01*
X135437463Y-150822717D01*
X135912131Y-151139880D01*
X136330707Y-151223140D01*
X137613373Y-151223140D01*
X138031949Y-151139880D01*
X138506617Y-150822717D01*
X138823780Y-150348049D01*
X138935153Y-149788140D01*
X138823780Y-149228231D01*
X138506617Y-148753563D01*
X138031949Y-148436400D01*
X137613373Y-148353140D01*
X136330707Y-148353140D01*
X135912131Y-148436400D01*
X135437463Y-148753563D01*
X135120300Y-149228231D01*
X135008927Y-149788140D01*
X128042040Y-149788140D01*
X128042040Y-147860918D01*
X142195040Y-147860918D01*
X142195040Y-148511362D01*
X142443954Y-149112293D01*
X142903887Y-149572226D01*
X143504818Y-149821140D01*
X144155262Y-149821140D01*
X144756193Y-149572226D01*
X145216126Y-149112293D01*
X145465040Y-148511362D01*
X145465040Y-147860918D01*
X148695040Y-147860918D01*
X148695040Y-148511362D01*
X148943954Y-149112293D01*
X149403887Y-149572226D01*
X150004818Y-149821140D01*
X150655262Y-149821140D01*
X150734930Y-149788140D01*
X155328927Y-149788140D01*
X155440300Y-150348049D01*
X155757463Y-150822717D01*
X156232131Y-151139880D01*
X156650707Y-151223140D01*
X157933373Y-151223140D01*
X158351949Y-151139880D01*
X158826617Y-150822717D01*
X159143780Y-150348049D01*
X159255153Y-149788140D01*
X159143780Y-149228231D01*
X158826617Y-148753563D01*
X158351949Y-148436400D01*
X157933373Y-148353140D01*
X156650707Y-148353140D01*
X156232131Y-148436400D01*
X155757463Y-148753563D01*
X155440300Y-149228231D01*
X155328927Y-149788140D01*
X150734930Y-149788140D01*
X151256193Y-149572226D01*
X151716126Y-149112293D01*
X151965040Y-148511362D01*
X151965040Y-147860918D01*
X151716126Y-147259987D01*
X151256193Y-146800054D01*
X150655262Y-146551140D01*
X150004818Y-146551140D01*
X149403887Y-146800054D01*
X148943954Y-147259987D01*
X148695040Y-147860918D01*
X145465040Y-147860918D01*
X145216126Y-147259987D01*
X144756193Y-146800054D01*
X144155262Y-146551140D01*
X143504818Y-146551140D01*
X142903887Y-146800054D01*
X142443954Y-147259987D01*
X142195040Y-147860918D01*
X128042040Y-147860918D01*
X128042040Y-144153890D01*
X144327040Y-144153890D01*
X144327040Y-144894450D01*
X144423713Y-145127839D01*
X144602342Y-145306467D01*
X144835731Y-145403140D01*
X145576290Y-145403140D01*
X145735040Y-145244390D01*
X145735040Y-143995140D01*
X144485790Y-143995140D01*
X144327040Y-144153890D01*
X128042040Y-144153890D01*
X128042040Y-141488140D01*
X135009907Y-141488140D01*
X135117399Y-142028540D01*
X135423511Y-142486669D01*
X135881640Y-142792781D01*
X136285633Y-142873140D01*
X137658447Y-142873140D01*
X137815853Y-142841830D01*
X144327040Y-142841830D01*
X144327040Y-143582390D01*
X144485790Y-143741140D01*
X145735040Y-143741140D01*
X145735040Y-142491890D01*
X145989040Y-142491890D01*
X145989040Y-143741140D01*
X146009040Y-143741140D01*
X146009040Y-143995140D01*
X145989040Y-143995140D01*
X145989040Y-145244390D01*
X146147790Y-145403140D01*
X146888349Y-145403140D01*
X147121738Y-145306467D01*
X147300367Y-145127839D01*
X147356179Y-144993096D01*
X147532533Y-145169450D01*
X148096710Y-145403140D01*
X148707370Y-145403140D01*
X149271547Y-145169450D01*
X149703350Y-144737647D01*
X149937040Y-144173470D01*
X149937040Y-143562810D01*
X149703350Y-142998633D01*
X149271547Y-142566830D01*
X148707370Y-142333140D01*
X148096710Y-142333140D01*
X147532533Y-142566830D01*
X147356179Y-142743184D01*
X147300367Y-142608441D01*
X147121738Y-142429813D01*
X146888349Y-142333140D01*
X146147790Y-142333140D01*
X145989040Y-142491890D01*
X145735040Y-142491890D01*
X145576290Y-142333140D01*
X144835731Y-142333140D01*
X144602342Y-142429813D01*
X144423713Y-142608441D01*
X144327040Y-142841830D01*
X137815853Y-142841830D01*
X138062440Y-142792781D01*
X138520569Y-142486669D01*
X138826681Y-142028540D01*
X138934173Y-141488140D01*
X155329907Y-141488140D01*
X155437399Y-142028540D01*
X155743511Y-142486669D01*
X156201640Y-142792781D01*
X156605633Y-142873140D01*
X157978447Y-142873140D01*
X158382440Y-142792781D01*
X158840569Y-142486669D01*
X159146681Y-142028540D01*
X159254173Y-141488140D01*
X159146681Y-140947740D01*
X158840569Y-140489611D01*
X158382440Y-140183499D01*
X157978447Y-140103140D01*
X156605633Y-140103140D01*
X156201640Y-140183499D01*
X155743511Y-140489611D01*
X155437399Y-140947740D01*
X155329907Y-141488140D01*
X138934173Y-141488140D01*
X138826681Y-140947740D01*
X138520569Y-140489611D01*
X138062440Y-140183499D01*
X137658447Y-140103140D01*
X136285633Y-140103140D01*
X135881640Y-140183499D01*
X135423511Y-140489611D01*
X135117399Y-140947740D01*
X135009907Y-141488140D01*
X128042040Y-141488140D01*
X128042040Y-139073890D01*
X144327040Y-139073890D01*
X144327040Y-139814450D01*
X144423713Y-140047839D01*
X144602342Y-140226467D01*
X144835731Y-140323140D01*
X145576290Y-140323140D01*
X145735040Y-140164390D01*
X145735040Y-138915140D01*
X144485790Y-138915140D01*
X144327040Y-139073890D01*
X128042040Y-139073890D01*
X128042040Y-137761830D01*
X144327040Y-137761830D01*
X144327040Y-138502390D01*
X144485790Y-138661140D01*
X145735040Y-138661140D01*
X145735040Y-137411890D01*
X145989040Y-137411890D01*
X145989040Y-138661140D01*
X146009040Y-138661140D01*
X146009040Y-138915140D01*
X145989040Y-138915140D01*
X145989040Y-140164390D01*
X146147790Y-140323140D01*
X146888349Y-140323140D01*
X147121738Y-140226467D01*
X147300367Y-140047839D01*
X147356179Y-139913096D01*
X147532533Y-140089450D01*
X148096710Y-140323140D01*
X148707370Y-140323140D01*
X149271547Y-140089450D01*
X149703350Y-139657647D01*
X149937040Y-139093470D01*
X149937040Y-138482810D01*
X149703350Y-137918633D01*
X149271547Y-137486830D01*
X148707370Y-137253140D01*
X148096710Y-137253140D01*
X147532533Y-137486830D01*
X147356179Y-137663184D01*
X147300367Y-137528441D01*
X147121738Y-137349813D01*
X146888349Y-137253140D01*
X146147790Y-137253140D01*
X145989040Y-137411890D01*
X145735040Y-137411890D01*
X145576290Y-137253140D01*
X144835731Y-137253140D01*
X144602342Y-137349813D01*
X144423713Y-137528441D01*
X144327040Y-137761830D01*
X128042040Y-137761830D01*
X128042040Y-136533890D01*
X154487040Y-136533890D01*
X154487040Y-137274450D01*
X154583713Y-137507839D01*
X154762342Y-137686467D01*
X154995731Y-137783140D01*
X155736290Y-137783140D01*
X155895040Y-137624390D01*
X155895040Y-136375140D01*
X154645790Y-136375140D01*
X154487040Y-136533890D01*
X128042040Y-136533890D01*
X128042040Y-132917179D01*
X135180136Y-132917179D01*
X135197673Y-132999959D01*
X135467540Y-133493036D01*
X135905557Y-133845306D01*
X136445040Y-134003140D01*
X136845040Y-134003140D01*
X136845040Y-132695140D01*
X137099040Y-132695140D01*
X137099040Y-134003140D01*
X137499040Y-134003140D01*
X137530656Y-133993890D01*
X144327040Y-133993890D01*
X144327040Y-134734450D01*
X144423713Y-134967839D01*
X144602342Y-135146467D01*
X144835731Y-135243140D01*
X145576290Y-135243140D01*
X145735040Y-135084390D01*
X145735040Y-133835140D01*
X144485790Y-133835140D01*
X144327040Y-133993890D01*
X137530656Y-133993890D01*
X138038523Y-133845306D01*
X138476540Y-133493036D01*
X138746407Y-132999959D01*
X138763944Y-132917179D01*
X138641955Y-132695140D01*
X137099040Y-132695140D01*
X136845040Y-132695140D01*
X135302125Y-132695140D01*
X135180136Y-132917179D01*
X128042040Y-132917179D01*
X128042040Y-132681830D01*
X144327040Y-132681830D01*
X144327040Y-133422390D01*
X144485790Y-133581140D01*
X145735040Y-133581140D01*
X145735040Y-132331890D01*
X145989040Y-132331890D01*
X145989040Y-133581140D01*
X146009040Y-133581140D01*
X146009040Y-133835140D01*
X145989040Y-133835140D01*
X145989040Y-135084390D01*
X146147790Y-135243140D01*
X146888349Y-135243140D01*
X147121738Y-135146467D01*
X147300367Y-134967839D01*
X147356179Y-134833096D01*
X147532533Y-135009450D01*
X148096710Y-135243140D01*
X148707370Y-135243140D01*
X148758816Y-135221830D01*
X154487040Y-135221830D01*
X154487040Y-135962390D01*
X154645790Y-136121140D01*
X155895040Y-136121140D01*
X155895040Y-134871890D01*
X156149040Y-134871890D01*
X156149040Y-136121140D01*
X156169040Y-136121140D01*
X156169040Y-136375140D01*
X156149040Y-136375140D01*
X156149040Y-137624390D01*
X156307790Y-137783140D01*
X157048349Y-137783140D01*
X157281738Y-137686467D01*
X157460367Y-137507839D01*
X157516179Y-137373096D01*
X157692533Y-137549450D01*
X158256710Y-137783140D01*
X158867370Y-137783140D01*
X159431547Y-137549450D01*
X159863350Y-137117647D01*
X160097040Y-136553470D01*
X160097040Y-135942810D01*
X159863350Y-135378633D01*
X159431547Y-134946830D01*
X158867370Y-134713140D01*
X158256710Y-134713140D01*
X157692533Y-134946830D01*
X157516179Y-135123184D01*
X157460367Y-134988441D01*
X157281738Y-134809813D01*
X157048349Y-134713140D01*
X156307790Y-134713140D01*
X156149040Y-134871890D01*
X155895040Y-134871890D01*
X155736290Y-134713140D01*
X154995731Y-134713140D01*
X154762342Y-134809813D01*
X154583713Y-134988441D01*
X154487040Y-135221830D01*
X148758816Y-135221830D01*
X149271547Y-135009450D01*
X149703350Y-134577647D01*
X149937040Y-134013470D01*
X149937040Y-133402810D01*
X149735885Y-132917179D01*
X155500136Y-132917179D01*
X155517673Y-132999959D01*
X155787540Y-133493036D01*
X156225557Y-133845306D01*
X156765040Y-134003140D01*
X157165040Y-134003140D01*
X157165040Y-132695140D01*
X157419040Y-132695140D01*
X157419040Y-134003140D01*
X157819040Y-134003140D01*
X158358523Y-133845306D01*
X158796540Y-133493036D01*
X159066407Y-132999959D01*
X159083944Y-132917179D01*
X158961955Y-132695140D01*
X157419040Y-132695140D01*
X157165040Y-132695140D01*
X155622125Y-132695140D01*
X155500136Y-132917179D01*
X149735885Y-132917179D01*
X149703350Y-132838633D01*
X149271547Y-132406830D01*
X148818330Y-132219101D01*
X155500136Y-132219101D01*
X155622125Y-132441140D01*
X157165040Y-132441140D01*
X157165040Y-131133140D01*
X157419040Y-131133140D01*
X157419040Y-132441140D01*
X158961955Y-132441140D01*
X159083944Y-132219101D01*
X159066407Y-132136321D01*
X158796540Y-131643244D01*
X158358523Y-131290974D01*
X157819040Y-131133140D01*
X157419040Y-131133140D01*
X157165040Y-131133140D01*
X156765040Y-131133140D01*
X156225557Y-131290974D01*
X155787540Y-131643244D01*
X155517673Y-132136321D01*
X155500136Y-132219101D01*
X148818330Y-132219101D01*
X148707370Y-132173140D01*
X148096710Y-132173140D01*
X147532533Y-132406830D01*
X147356179Y-132583184D01*
X147300367Y-132448441D01*
X147121738Y-132269813D01*
X146888349Y-132173140D01*
X146147790Y-132173140D01*
X145989040Y-132331890D01*
X145735040Y-132331890D01*
X145576290Y-132173140D01*
X144835731Y-132173140D01*
X144602342Y-132269813D01*
X144423713Y-132448441D01*
X144327040Y-132681830D01*
X128042040Y-132681830D01*
X128042040Y-132219101D01*
X135180136Y-132219101D01*
X135302125Y-132441140D01*
X136845040Y-132441140D01*
X136845040Y-131133140D01*
X137099040Y-131133140D01*
X137099040Y-132441140D01*
X138641955Y-132441140D01*
X138763944Y-132219101D01*
X138746407Y-132136321D01*
X138476540Y-131643244D01*
X138038523Y-131290974D01*
X137499040Y-131133140D01*
X137099040Y-131133140D01*
X136845040Y-131133140D01*
X136445040Y-131133140D01*
X135905557Y-131290974D01*
X135467540Y-131643244D01*
X135197673Y-132136321D01*
X135180136Y-132219101D01*
X128042040Y-132219101D01*
X128042040Y-129817179D01*
X135080136Y-129817179D01*
X135097673Y-129899959D01*
X135367540Y-130393036D01*
X135805557Y-130745306D01*
X136345040Y-130903140D01*
X136845040Y-130903140D01*
X136845040Y-129595140D01*
X137099040Y-129595140D01*
X137099040Y-130903140D01*
X137599040Y-130903140D01*
X138138523Y-130745306D01*
X138576540Y-130393036D01*
X138846407Y-129899959D01*
X138863944Y-129817179D01*
X138741955Y-129595140D01*
X137099040Y-129595140D01*
X136845040Y-129595140D01*
X135202125Y-129595140D01*
X135080136Y-129817179D01*
X128042040Y-129817179D01*
X128042040Y-129119101D01*
X135080136Y-129119101D01*
X135202125Y-129341140D01*
X136845040Y-129341140D01*
X136845040Y-128033140D01*
X137099040Y-128033140D01*
X137099040Y-129341140D01*
X138741955Y-129341140D01*
X138863944Y-129119101D01*
X138846407Y-129036321D01*
X138779400Y-128913890D01*
X144327040Y-128913890D01*
X144327040Y-129654450D01*
X144423713Y-129887839D01*
X144602342Y-130066467D01*
X144835731Y-130163140D01*
X145576290Y-130163140D01*
X145735040Y-130004390D01*
X145735040Y-128755140D01*
X144485790Y-128755140D01*
X144327040Y-128913890D01*
X138779400Y-128913890D01*
X138576540Y-128543244D01*
X138138523Y-128190974D01*
X137599040Y-128033140D01*
X137099040Y-128033140D01*
X136845040Y-128033140D01*
X136345040Y-128033140D01*
X135805557Y-128190974D01*
X135367540Y-128543244D01*
X135097673Y-129036321D01*
X135080136Y-129119101D01*
X128042040Y-129119101D01*
X128042040Y-127601830D01*
X144327040Y-127601830D01*
X144327040Y-128342390D01*
X144485790Y-128501140D01*
X145735040Y-128501140D01*
X145735040Y-127251890D01*
X145989040Y-127251890D01*
X145989040Y-128501140D01*
X146009040Y-128501140D01*
X146009040Y-128755140D01*
X145989040Y-128755140D01*
X145989040Y-130004390D01*
X146147790Y-130163140D01*
X146888349Y-130163140D01*
X147121738Y-130066467D01*
X147300367Y-129887839D01*
X147356179Y-129753096D01*
X147532533Y-129929450D01*
X148096710Y-130163140D01*
X148707370Y-130163140D01*
X149271547Y-129929450D01*
X149703350Y-129497647D01*
X149715572Y-129468140D01*
X155328927Y-129468140D01*
X155440300Y-130028049D01*
X155757463Y-130502717D01*
X156232131Y-130819880D01*
X156650707Y-130903140D01*
X157933373Y-130903140D01*
X158351949Y-130819880D01*
X158826617Y-130502717D01*
X159143780Y-130028049D01*
X159255153Y-129468140D01*
X159143780Y-128908231D01*
X158826617Y-128433563D01*
X158351949Y-128116400D01*
X157933373Y-128033140D01*
X156650707Y-128033140D01*
X156232131Y-128116400D01*
X155757463Y-128433563D01*
X155440300Y-128908231D01*
X155328927Y-129468140D01*
X149715572Y-129468140D01*
X149937040Y-128933470D01*
X149937040Y-128322810D01*
X149703350Y-127758633D01*
X149271547Y-127326830D01*
X148707370Y-127093140D01*
X148096710Y-127093140D01*
X147532533Y-127326830D01*
X147356179Y-127503184D01*
X147300367Y-127368441D01*
X147121738Y-127189813D01*
X146888349Y-127093140D01*
X146147790Y-127093140D01*
X145989040Y-127251890D01*
X145735040Y-127251890D01*
X145576290Y-127093140D01*
X144835731Y-127093140D01*
X144602342Y-127189813D01*
X144423713Y-127368441D01*
X144327040Y-127601830D01*
X128042040Y-127601830D01*
X128042040Y-119615427D01*
X128384166Y-119757140D01*
X128795914Y-119757140D01*
X129176320Y-119599571D01*
X129467471Y-119308420D01*
X129625040Y-118928014D01*
X129625040Y-118516266D01*
X129467471Y-118135860D01*
X129176320Y-117844709D01*
X128823845Y-117698709D01*
X128804050Y-117678915D01*
X128804050Y-109540596D01*
X129249148Y-109749626D01*
X129479040Y-109628959D01*
X129479040Y-108435140D01*
X129459040Y-108435140D01*
X129459040Y-108181140D01*
X129479040Y-108181140D01*
X129479040Y-108161140D01*
X129733040Y-108161140D01*
X129733040Y-108181140D01*
X129753040Y-108181140D01*
X129753040Y-108435140D01*
X129733040Y-108435140D01*
X129733040Y-109628959D01*
X129962932Y-109749626D01*
X130487398Y-109503323D01*
X130749041Y-109216224D01*
X130749040Y-120052429D01*
X130633609Y-120167860D01*
X130476040Y-120548266D01*
X130476040Y-120960014D01*
X130633609Y-121340420D01*
X130924760Y-121631571D01*
X131305166Y-121789140D01*
X131716914Y-121789140D01*
X132097320Y-121631571D01*
X132388471Y-121340420D01*
X132459831Y-121168140D01*
X135009907Y-121168140D01*
X135117399Y-121708540D01*
X135423511Y-122166669D01*
X135881640Y-122472781D01*
X136285633Y-122553140D01*
X137658447Y-122553140D01*
X138062440Y-122472781D01*
X138520569Y-122166669D01*
X138826681Y-121708540D01*
X138934173Y-121168140D01*
X155329907Y-121168140D01*
X155437399Y-121708540D01*
X155743511Y-122166669D01*
X156201640Y-122472781D01*
X156605633Y-122553140D01*
X157978447Y-122553140D01*
X158382440Y-122472781D01*
X158840569Y-122166669D01*
X159146681Y-121708540D01*
X159254173Y-121168140D01*
X159146681Y-120627740D01*
X158840569Y-120169611D01*
X158382440Y-119863499D01*
X157978447Y-119783140D01*
X156605633Y-119783140D01*
X156201640Y-119863499D01*
X155743511Y-120169611D01*
X155437399Y-120627740D01*
X155329907Y-121168140D01*
X138934173Y-121168140D01*
X138826681Y-120627740D01*
X138520569Y-120169611D01*
X138062440Y-119863499D01*
X137658447Y-119783140D01*
X136285633Y-119783140D01*
X135881640Y-119863499D01*
X135423511Y-120169611D01*
X135117399Y-120627740D01*
X135009907Y-121168140D01*
X132459831Y-121168140D01*
X132546040Y-120960014D01*
X132546040Y-120548266D01*
X132388471Y-120167860D01*
X132273040Y-120052429D01*
X132273040Y-110468140D01*
X134526695Y-110468140D01*
X134654832Y-111112328D01*
X135019735Y-111658445D01*
X135565852Y-112023348D01*
X136047431Y-112119140D01*
X137896649Y-112119140D01*
X138378228Y-112023348D01*
X138924345Y-111658445D01*
X139289248Y-111112328D01*
X139417385Y-110468140D01*
X139289248Y-109823952D01*
X138924345Y-109277835D01*
X138378228Y-108912932D01*
X137896649Y-108817140D01*
X136047431Y-108817140D01*
X135565852Y-108912932D01*
X135019735Y-109277835D01*
X134654832Y-109823952D01*
X134526695Y-110468140D01*
X132273040Y-110468140D01*
X132273040Y-109793140D01*
X132292296Y-109793140D01*
X132725458Y-109706979D01*
X133216665Y-109378765D01*
X133544879Y-108887558D01*
X133660132Y-108308140D01*
X133544879Y-107728722D01*
X133216665Y-107237515D01*
X132918279Y-107038140D01*
X133216665Y-106838765D01*
X133544879Y-106347558D01*
X133583959Y-106151084D01*
X134604065Y-106151084D01*
X134636114Y-106282617D01*
X134952804Y-106845770D01*
X135460897Y-107244864D01*
X136083040Y-107419140D01*
X136845040Y-107419140D01*
X136845040Y-105895140D01*
X134723204Y-105895140D01*
X134604065Y-106151084D01*
X133583959Y-106151084D01*
X133660132Y-105768140D01*
X133544879Y-105188722D01*
X133216665Y-104697515D01*
X133198421Y-104685324D01*
X133243805Y-104676297D01*
X133452115Y-104537107D01*
X133573609Y-104830420D01*
X133864760Y-105121571D01*
X134245166Y-105279140D01*
X134629906Y-105279140D01*
X134604065Y-105385196D01*
X134723204Y-105641140D01*
X136845040Y-105641140D01*
X136845040Y-104117140D01*
X137099040Y-104117140D01*
X137099040Y-105641140D01*
X139220876Y-105641140D01*
X139340015Y-105385196D01*
X139307966Y-105253663D01*
X138991276Y-104690510D01*
X138483183Y-104291416D01*
X137861040Y-104117140D01*
X137099040Y-104117140D01*
X136845040Y-104117140D01*
X136083040Y-104117140D01*
X135486040Y-104284373D01*
X135486040Y-104038266D01*
X135328471Y-103657860D01*
X135194040Y-103523429D01*
X135194040Y-102374912D01*
X135565852Y-102623348D01*
X136047431Y-102719140D01*
X137896649Y-102719140D01*
X138378228Y-102623348D01*
X138924345Y-102258445D01*
X139289248Y-101712328D01*
X139417385Y-101068140D01*
X139289248Y-100423952D01*
X138924345Y-99877835D01*
X138378228Y-99512932D01*
X137896649Y-99417140D01*
X136047431Y-99417140D01*
X135565852Y-99512932D01*
X135194040Y-99761368D01*
X135194040Y-99098770D01*
X135806789Y-98486022D01*
X135870411Y-98443511D01*
X136038828Y-98191457D01*
X136083040Y-97969188D01*
X136083040Y-97969187D01*
X136097968Y-97894140D01*
X136083040Y-97819093D01*
X136083040Y-93515851D01*
X136198471Y-93400420D01*
X136356040Y-93020014D01*
X136356040Y-92608266D01*
X136198471Y-92227860D01*
X135907320Y-91936709D01*
X135526914Y-91779140D01*
X135115166Y-91779140D01*
X134734760Y-91936709D01*
X134443609Y-92227860D01*
X134286040Y-92608266D01*
X134286040Y-93020014D01*
X134443609Y-93400420D01*
X134559040Y-93515851D01*
X134559041Y-97578508D01*
X133946293Y-98191257D01*
X133882669Y-98233769D01*
X133714252Y-98485824D01*
X133670040Y-98708093D01*
X133670040Y-98708097D01*
X133655113Y-98783140D01*
X133670040Y-98858183D01*
X133670041Y-103561428D01*
X133643480Y-103587989D01*
X133643480Y-102378140D01*
X133594197Y-102130375D01*
X133453849Y-101920331D01*
X133243805Y-101779983D01*
X132996040Y-101730700D01*
X131296040Y-101730700D01*
X131048275Y-101779983D01*
X130838231Y-101920331D01*
X130697883Y-102130375D01*
X130688856Y-102175759D01*
X130676665Y-102157515D01*
X130185458Y-101829301D01*
X129752296Y-101743140D01*
X129459784Y-101743140D01*
X129391799Y-101756663D01*
X128804050Y-101168915D01*
X128804050Y-97780599D01*
X128916415Y-97948765D01*
X129407622Y-98276979D01*
X129840784Y-98363140D01*
X130133296Y-98363140D01*
X130566458Y-98276979D01*
X131057665Y-97948765D01*
X131385879Y-97457558D01*
X131501132Y-96878140D01*
X131385879Y-96298722D01*
X131057665Y-95807515D01*
X130759279Y-95608140D01*
X131057665Y-95408765D01*
X131385879Y-94917558D01*
X131501132Y-94338140D01*
X131385879Y-93758722D01*
X131057665Y-93267515D01*
X131036007Y-93253044D01*
X131196738Y-93186467D01*
X131375367Y-93007839D01*
X131472040Y-92774450D01*
X131472040Y-92083890D01*
X131313290Y-91925140D01*
X130114040Y-91925140D01*
X130114040Y-91945140D01*
X129860040Y-91945140D01*
X129860040Y-91925140D01*
X129840040Y-91925140D01*
X129840040Y-91671140D01*
X129860040Y-91671140D01*
X129860040Y-90471890D01*
X130114040Y-90471890D01*
X130114040Y-91671140D01*
X131313290Y-91671140D01*
X131472040Y-91512390D01*
X131472040Y-90821830D01*
X131375367Y-90588441D01*
X131196738Y-90409813D01*
X130963349Y-90313140D01*
X130272790Y-90313140D01*
X130114040Y-90471890D01*
X129860040Y-90471890D01*
X129701290Y-90313140D01*
X129010731Y-90313140D01*
X128804050Y-90398750D01*
X128804050Y-90148140D01*
X134526695Y-90148140D01*
X134654832Y-90792328D01*
X135019735Y-91338445D01*
X135565852Y-91703348D01*
X136047431Y-91799140D01*
X137896649Y-91799140D01*
X138378228Y-91703348D01*
X138924345Y-91338445D01*
X138924464Y-91338266D01*
X139493040Y-91338266D01*
X139493040Y-91750014D01*
X139650609Y-92130420D01*
X139941760Y-92421571D01*
X140322166Y-92579140D01*
X140733914Y-92579140D01*
X141114320Y-92421571D01*
X141229751Y-92306140D01*
X142239338Y-92306140D01*
X142399022Y-92465824D01*
X142779428Y-92623393D01*
X143191176Y-92623393D01*
X143571582Y-92465824D01*
X143862733Y-92174673D01*
X144020302Y-91794267D01*
X144020302Y-91382519D01*
X143862733Y-91002113D01*
X143571582Y-90710962D01*
X143191176Y-90553393D01*
X142779428Y-90553393D01*
X142399022Y-90710962D01*
X142327844Y-90782140D01*
X141229751Y-90782140D01*
X141114320Y-90666709D01*
X140733914Y-90509140D01*
X140322166Y-90509140D01*
X139941760Y-90666709D01*
X139650609Y-90957860D01*
X139493040Y-91338266D01*
X138924464Y-91338266D01*
X139289248Y-90792328D01*
X139417385Y-90148140D01*
X139289248Y-89503952D01*
X138924345Y-88957835D01*
X138378228Y-88592932D01*
X137896649Y-88497140D01*
X136047431Y-88497140D01*
X135565852Y-88592932D01*
X135019735Y-88957835D01*
X134654832Y-89503952D01*
X134526695Y-90148140D01*
X128804050Y-90148140D01*
X128804050Y-89983165D01*
X129049320Y-89881571D01*
X129340471Y-89590420D01*
X129498040Y-89210014D01*
X129498040Y-88798266D01*
X129340471Y-88417860D01*
X129049320Y-88126709D01*
X128804050Y-88025115D01*
X128804050Y-86985599D01*
X128916415Y-87153765D01*
X129407622Y-87481979D01*
X129840784Y-87568140D01*
X130133296Y-87568140D01*
X130566458Y-87481979D01*
X131057665Y-87153765D01*
X131385879Y-86662558D01*
X131501132Y-86083140D01*
X131450996Y-85831084D01*
X134604065Y-85831084D01*
X134636114Y-85962617D01*
X134952804Y-86525770D01*
X135460897Y-86924864D01*
X136083040Y-87099140D01*
X136845040Y-87099140D01*
X136845040Y-85575140D01*
X137099040Y-85575140D01*
X137099040Y-87099140D01*
X137861040Y-87099140D01*
X138483183Y-86924864D01*
X138991276Y-86525770D01*
X139307966Y-85962617D01*
X139340015Y-85831084D01*
X139220876Y-85575140D01*
X137099040Y-85575140D01*
X136845040Y-85575140D01*
X134723204Y-85575140D01*
X134604065Y-85831084D01*
X131450996Y-85831084D01*
X131385879Y-85503722D01*
X131092866Y-85065196D01*
X134604065Y-85065196D01*
X134723204Y-85321140D01*
X136845040Y-85321140D01*
X136845040Y-83797140D01*
X137099040Y-83797140D01*
X137099040Y-85321140D01*
X139220876Y-85321140D01*
X139316707Y-85115266D01*
X140382040Y-85115266D01*
X140382040Y-85527014D01*
X140539609Y-85907420D01*
X140830760Y-86198571D01*
X141211166Y-86356140D01*
X141622914Y-86356140D01*
X142003320Y-86198571D01*
X142294471Y-85907420D01*
X142452040Y-85527014D01*
X142452040Y-85363771D01*
X142543633Y-85272177D01*
X148799315Y-85263026D01*
X148913720Y-85377431D01*
X149294126Y-85535000D01*
X149705874Y-85535000D01*
X150086280Y-85377431D01*
X150377431Y-85086280D01*
X150535000Y-84705874D01*
X150535000Y-84294126D01*
X150377431Y-83913720D01*
X150086280Y-83622569D01*
X149705874Y-83465000D01*
X149294126Y-83465000D01*
X148913720Y-83622569D01*
X148797261Y-83739028D01*
X142302032Y-83748531D01*
X142227539Y-83733713D01*
X142151942Y-83748750D01*
X142151378Y-83748751D01*
X142078148Y-83763429D01*
X141930222Y-83792853D01*
X141929741Y-83793174D01*
X141929174Y-83793288D01*
X141804104Y-83877122D01*
X141741791Y-83918758D01*
X141741390Y-83919159D01*
X141677366Y-83962074D01*
X141635262Y-84025287D01*
X141374409Y-84286140D01*
X141211166Y-84286140D01*
X140830760Y-84443709D01*
X140539609Y-84734860D01*
X140382040Y-85115266D01*
X139316707Y-85115266D01*
X139340015Y-85065196D01*
X139307966Y-84933663D01*
X138991276Y-84370510D01*
X138483183Y-83971416D01*
X137861040Y-83797140D01*
X137099040Y-83797140D01*
X136845040Y-83797140D01*
X136083040Y-83797140D01*
X135460897Y-83971416D01*
X134952804Y-84370510D01*
X134636114Y-84933663D01*
X134604065Y-85065196D01*
X131092866Y-85065196D01*
X131057665Y-85012515D01*
X130759279Y-84813140D01*
X131057665Y-84613765D01*
X131385879Y-84122558D01*
X131501132Y-83543140D01*
X131385879Y-82963722D01*
X131057665Y-82472515D01*
X131036007Y-82458044D01*
X131196738Y-82391467D01*
X131375367Y-82212839D01*
X131472040Y-81979450D01*
X131472040Y-81288890D01*
X131313290Y-81130140D01*
X130114040Y-81130140D01*
X130114040Y-81150140D01*
X129860040Y-81150140D01*
X129860040Y-81130140D01*
X129840040Y-81130140D01*
X129840040Y-80876140D01*
X129860040Y-80876140D01*
X129860040Y-79676890D01*
X130114040Y-79676890D01*
X130114040Y-80876140D01*
X131313290Y-80876140D01*
X131441290Y-80748140D01*
X134526695Y-80748140D01*
X134654832Y-81392328D01*
X135019735Y-81938445D01*
X135565852Y-82303348D01*
X136047431Y-82399140D01*
X137896649Y-82399140D01*
X138378228Y-82303348D01*
X138924345Y-81938445D01*
X139007986Y-81813266D01*
X141779040Y-81813266D01*
X141779040Y-82225014D01*
X141936609Y-82605420D01*
X142227760Y-82896571D01*
X142608166Y-83054140D01*
X143019914Y-83054140D01*
X143042170Y-83044921D01*
X143068039Y-83050067D01*
X143143082Y-83035140D01*
X150367329Y-83035140D01*
X150482760Y-83150571D01*
X150863166Y-83308140D01*
X151274914Y-83308140D01*
X151655320Y-83150571D01*
X151946471Y-82859420D01*
X152104040Y-82479014D01*
X152104040Y-82067266D01*
X151946471Y-81686860D01*
X151655320Y-81395709D01*
X151274914Y-81238140D01*
X150863166Y-81238140D01*
X150482760Y-81395709D01*
X150367329Y-81511140D01*
X143723896Y-81511140D01*
X143691471Y-81432860D01*
X143400320Y-81141709D01*
X143019914Y-80984140D01*
X142608166Y-80984140D01*
X142227760Y-81141709D01*
X141936609Y-81432860D01*
X141779040Y-81813266D01*
X139007986Y-81813266D01*
X139289248Y-81392328D01*
X139417385Y-80748140D01*
X139289248Y-80103952D01*
X138924345Y-79557835D01*
X138378228Y-79192932D01*
X137896649Y-79097140D01*
X136047431Y-79097140D01*
X135565852Y-79192932D01*
X135019735Y-79557835D01*
X134654832Y-80103952D01*
X134526695Y-80748140D01*
X131441290Y-80748140D01*
X131472040Y-80717390D01*
X131472040Y-80026830D01*
X131375367Y-79793441D01*
X131196738Y-79614813D01*
X130963349Y-79518140D01*
X130272790Y-79518140D01*
X130114040Y-79676890D01*
X129860040Y-79676890D01*
X129701290Y-79518140D01*
X129010731Y-79518140D01*
X128804050Y-79603750D01*
X128804050Y-78109365D01*
X129593276Y-77320140D01*
X135016690Y-77320140D01*
X135369166Y-77466140D01*
X135780914Y-77466140D01*
X136161320Y-77308571D01*
X136452471Y-77017420D01*
X136610040Y-76637014D01*
X136610040Y-76225266D01*
X136452471Y-75844860D01*
X136161320Y-75553709D01*
X135780914Y-75396140D01*
X135369166Y-75396140D01*
X135016690Y-75542140D01*
X129312596Y-75542140D01*
X129225040Y-75524724D01*
X128878169Y-75593721D01*
X128791362Y-75651724D01*
X128584107Y-75790207D01*
X128534511Y-75864433D01*
X128042040Y-76356904D01*
X128042040Y-73708309D01*
X133571486Y-73708309D01*
X133657892Y-73964793D01*
X134231376Y-74174608D01*
X134841500Y-74148989D01*
X135286188Y-73964793D01*
X135372594Y-73708309D01*
X134472040Y-72807755D01*
X133571486Y-73708309D01*
X128042040Y-73708309D01*
X128042040Y-72387486D01*
X132925582Y-72387486D01*
X132951201Y-72997610D01*
X133135397Y-73442298D01*
X133391881Y-73528704D01*
X134292435Y-72628150D01*
X134651645Y-72628150D01*
X135552199Y-73528704D01*
X135702602Y-73478035D01*
X135710730Y-73497657D01*
X136142533Y-73929460D01*
X136706710Y-74163150D01*
X137317370Y-74163150D01*
X137881547Y-73929460D01*
X138242040Y-73568967D01*
X138602533Y-73929460D01*
X139166710Y-74163150D01*
X139777370Y-74163150D01*
X140341547Y-73929460D01*
X140773350Y-73497657D01*
X141007040Y-72933480D01*
X141007040Y-72322820D01*
X140773350Y-71758643D01*
X140341547Y-71326840D01*
X139777370Y-71093150D01*
X139166710Y-71093150D01*
X138602533Y-71326840D01*
X138242040Y-71687333D01*
X137881547Y-71326840D01*
X137317370Y-71093150D01*
X136706710Y-71093150D01*
X136142533Y-71326840D01*
X135710730Y-71758643D01*
X135702602Y-71778265D01*
X135552199Y-71727596D01*
X134651645Y-72628150D01*
X134292435Y-72628150D01*
X133391881Y-71727596D01*
X133135397Y-71814002D01*
X132925582Y-72387486D01*
X128042040Y-72387486D01*
X128042040Y-71547991D01*
X133571486Y-71547991D01*
X134472040Y-72448545D01*
X135372594Y-71547991D01*
X135286188Y-71291507D01*
X134712704Y-71081692D01*
X134102580Y-71107311D01*
X133657892Y-71291507D01*
X133571486Y-71547991D01*
X128042040Y-71547991D01*
X128042040Y-70628140D01*
X144364600Y-70628140D01*
X144364600Y-72328140D01*
X144413883Y-72575905D01*
X144554231Y-72785949D01*
X144764275Y-72926297D01*
X145012040Y-72975580D01*
X146712040Y-72975580D01*
X146959805Y-72926297D01*
X147169849Y-72785949D01*
X147310197Y-72575905D01*
X147319224Y-72530521D01*
X147331415Y-72548765D01*
X147822622Y-72876979D01*
X148255784Y-72963140D01*
X148548296Y-72963140D01*
X148981458Y-72876979D01*
X149472665Y-72548765D01*
X149800879Y-72057558D01*
X149916132Y-71478140D01*
X149800879Y-70898722D01*
X149472665Y-70407515D01*
X149153562Y-70194297D01*
X149283398Y-70133323D01*
X149561521Y-69828140D01*
X154846695Y-69828140D01*
X154974832Y-70472328D01*
X155339735Y-71018445D01*
X155885852Y-71383348D01*
X156367431Y-71479140D01*
X158216649Y-71479140D01*
X158698228Y-71383348D01*
X159244345Y-71018445D01*
X159609248Y-70472328D01*
X159737385Y-69828140D01*
X159609248Y-69183952D01*
X159244345Y-68637835D01*
X158698228Y-68272932D01*
X158216649Y-68177140D01*
X156367431Y-68177140D01*
X155885852Y-68272932D01*
X155339735Y-68637835D01*
X154974832Y-69183952D01*
X154846695Y-69828140D01*
X149561521Y-69828140D01*
X149673685Y-69705064D01*
X149843516Y-69295030D01*
X149722195Y-69065140D01*
X148529040Y-69065140D01*
X148529040Y-69085140D01*
X148275040Y-69085140D01*
X148275040Y-69065140D01*
X145989040Y-69065140D01*
X145989040Y-69085140D01*
X145735040Y-69085140D01*
X145735040Y-69065140D01*
X144541885Y-69065140D01*
X144420564Y-69295030D01*
X144590395Y-69705064D01*
X144867748Y-70009401D01*
X144764275Y-70029983D01*
X144554231Y-70170331D01*
X144413883Y-70380375D01*
X144364600Y-70628140D01*
X128042040Y-70628140D01*
X128042040Y-65128140D01*
X130003050Y-65128140D01*
X130137706Y-65805103D01*
X130521175Y-66379005D01*
X131095077Y-66762474D01*
X131601160Y-66863140D01*
X132742920Y-66863140D01*
X133249003Y-66762474D01*
X133822905Y-66379005D01*
X134206374Y-65805103D01*
X134341030Y-65128140D01*
X139603050Y-65128140D01*
X139737706Y-65805103D01*
X140121175Y-66379005D01*
X140695077Y-66762474D01*
X141201160Y-66863140D01*
X142342920Y-66863140D01*
X142849003Y-66762474D01*
X142860143Y-66755030D01*
X144420564Y-66755030D01*
X144590395Y-67165064D01*
X144980682Y-67593323D01*
X145139994Y-67668140D01*
X144980682Y-67742957D01*
X144590395Y-68171216D01*
X144420564Y-68581250D01*
X144541885Y-68811140D01*
X145735040Y-68811140D01*
X145735040Y-66525140D01*
X145989040Y-66525140D01*
X145989040Y-68811140D01*
X148275040Y-68811140D01*
X148275040Y-66525140D01*
X148529040Y-66525140D01*
X148529040Y-68811140D01*
X149722195Y-68811140D01*
X149843516Y-68581250D01*
X149673685Y-68171216D01*
X149283398Y-67742957D01*
X149124086Y-67668140D01*
X149283398Y-67593323D01*
X149673685Y-67165064D01*
X149843516Y-66755030D01*
X149722195Y-66525140D01*
X148529040Y-66525140D01*
X148275040Y-66525140D01*
X145989040Y-66525140D01*
X145735040Y-66525140D01*
X144541885Y-66525140D01*
X144420564Y-66755030D01*
X142860143Y-66755030D01*
X143422905Y-66379005D01*
X143806374Y-65805103D01*
X143941030Y-65128140D01*
X143806374Y-64451177D01*
X143648586Y-64215030D01*
X144420564Y-64215030D01*
X144590395Y-64625064D01*
X144980682Y-65053323D01*
X145139994Y-65128140D01*
X144980682Y-65202957D01*
X144590395Y-65631216D01*
X144420564Y-66041250D01*
X144541885Y-66271140D01*
X145735040Y-66271140D01*
X145735040Y-63985140D01*
X145989040Y-63985140D01*
X145989040Y-66271140D01*
X148275040Y-66271140D01*
X148275040Y-63985140D01*
X148529040Y-63985140D01*
X148529040Y-66271140D01*
X149722195Y-66271140D01*
X149843516Y-66041250D01*
X149673685Y-65631216D01*
X149564205Y-65511084D01*
X154924065Y-65511084D01*
X154956114Y-65642617D01*
X155272804Y-66205770D01*
X155780897Y-66604864D01*
X156403040Y-66779140D01*
X157165040Y-66779140D01*
X157165040Y-65255140D01*
X157419040Y-65255140D01*
X157419040Y-66779140D01*
X158181040Y-66779140D01*
X158803183Y-66604864D01*
X159311276Y-66205770D01*
X159627966Y-65642617D01*
X159660015Y-65511084D01*
X159540876Y-65255140D01*
X157419040Y-65255140D01*
X157165040Y-65255140D01*
X155043204Y-65255140D01*
X154924065Y-65511084D01*
X149564205Y-65511084D01*
X149283398Y-65202957D01*
X149124086Y-65128140D01*
X149283398Y-65053323D01*
X149564204Y-64745196D01*
X154924065Y-64745196D01*
X155043204Y-65001140D01*
X157165040Y-65001140D01*
X157165040Y-63477140D01*
X157419040Y-63477140D01*
X157419040Y-65001140D01*
X159540876Y-65001140D01*
X159660015Y-64745196D01*
X159627966Y-64613663D01*
X159311276Y-64050510D01*
X158803183Y-63651416D01*
X158181040Y-63477140D01*
X157419040Y-63477140D01*
X157165040Y-63477140D01*
X156403040Y-63477140D01*
X155780897Y-63651416D01*
X155272804Y-64050510D01*
X154956114Y-64613663D01*
X154924065Y-64745196D01*
X149564204Y-64745196D01*
X149673685Y-64625064D01*
X149843516Y-64215030D01*
X149722195Y-63985140D01*
X148529040Y-63985140D01*
X148275040Y-63985140D01*
X145989040Y-63985140D01*
X145735040Y-63985140D01*
X144541885Y-63985140D01*
X144420564Y-64215030D01*
X143648586Y-64215030D01*
X143422905Y-63877275D01*
X142849003Y-63493806D01*
X142342920Y-63393140D01*
X141201160Y-63393140D01*
X140695077Y-63493806D01*
X140121175Y-63877275D01*
X139737706Y-64451177D01*
X139603050Y-65128140D01*
X134341030Y-65128140D01*
X134206374Y-64451177D01*
X133822905Y-63877275D01*
X133249003Y-63493806D01*
X132742920Y-63393140D01*
X131601160Y-63393140D01*
X131095077Y-63493806D01*
X130521175Y-63877275D01*
X130137706Y-64451177D01*
X130003050Y-65128140D01*
X128042040Y-65128140D01*
X128042040Y-61318140D01*
X144347948Y-61318140D01*
X144463201Y-61897558D01*
X144791415Y-62388765D01*
X145110518Y-62601983D01*
X144980682Y-62662957D01*
X144590395Y-63091216D01*
X144420564Y-63501250D01*
X144541885Y-63731140D01*
X145735040Y-63731140D01*
X145735040Y-63711140D01*
X145989040Y-63711140D01*
X145989040Y-63731140D01*
X148275040Y-63731140D01*
X148275040Y-63711140D01*
X148529040Y-63711140D01*
X148529040Y-63731140D01*
X149722195Y-63731140D01*
X149843516Y-63501250D01*
X149673685Y-63091216D01*
X149283398Y-62662957D01*
X149153562Y-62601983D01*
X149472665Y-62388765D01*
X149800879Y-61897558D01*
X149916132Y-61318140D01*
X149800879Y-60738722D01*
X149593355Y-60428140D01*
X154846695Y-60428140D01*
X154974832Y-61072328D01*
X155339735Y-61618445D01*
X155885852Y-61983348D01*
X156367431Y-62079140D01*
X158216649Y-62079140D01*
X158698228Y-61983348D01*
X159244345Y-61618445D01*
X159609248Y-61072328D01*
X159737385Y-60428140D01*
X159609248Y-59783952D01*
X159244345Y-59237835D01*
X158698228Y-58872932D01*
X158216649Y-58777140D01*
X156367431Y-58777140D01*
X155885852Y-58872932D01*
X155339735Y-59237835D01*
X154974832Y-59783952D01*
X154846695Y-60428140D01*
X149593355Y-60428140D01*
X149472665Y-60247515D01*
X148981458Y-59919301D01*
X148548296Y-59833140D01*
X148255784Y-59833140D01*
X147822622Y-59919301D01*
X147331415Y-60247515D01*
X147132040Y-60545901D01*
X146932665Y-60247515D01*
X146441458Y-59919301D01*
X146008296Y-59833140D01*
X145715784Y-59833140D01*
X145282622Y-59919301D01*
X144791415Y-60247515D01*
X144463201Y-60738722D01*
X144347948Y-61318140D01*
X128042040Y-61318140D01*
X128042040Y-56478140D01*
X166222040Y-56478140D01*
X166222040Y-80166904D01*
X166222040Y-80166904D01*
G37*
X166222040Y-80166904D02*
X160631571Y-74576436D01*
X160581973Y-74502207D01*
X160287910Y-74305721D01*
X160028596Y-74254140D01*
X160028595Y-74254140D01*
X159941040Y-74236724D01*
X159853485Y-74254140D01*
X145023390Y-74254140D01*
X144670914Y-74108140D01*
X144259166Y-74108140D01*
X143878760Y-74265709D01*
X143587609Y-74556860D01*
X143430040Y-74937266D01*
X143430040Y-75349014D01*
X143587609Y-75729420D01*
X143878760Y-76020571D01*
X144259166Y-76178140D01*
X144603804Y-76178140D01*
X144025336Y-76756609D01*
X143951107Y-76806207D01*
X143754621Y-77100271D01*
X143710886Y-77320140D01*
X143685624Y-77447140D01*
X143703040Y-77534695D01*
X143703040Y-77735382D01*
X143447517Y-77906117D01*
X143096649Y-78431229D01*
X143004540Y-78894290D01*
X143004540Y-79301989D01*
X143096649Y-79765050D01*
X143447517Y-80290163D01*
X143972629Y-80641031D01*
X144592040Y-80764240D01*
X145211450Y-80641031D01*
X145736563Y-80290163D01*
X145871199Y-80088666D01*
X146265116Y-80474113D01*
X146759060Y-80688703D01*
X147005040Y-80568734D01*
X147005040Y-79225140D01*
X146985040Y-79225140D01*
X146985040Y-78971140D01*
X147005040Y-78971140D01*
X147005040Y-77627546D01*
X147259040Y-77627546D01*
X147259040Y-78971140D01*
X147279040Y-78971140D01*
X147279040Y-79225140D01*
X147259040Y-79225140D01*
X147259040Y-80568734D01*
X147505020Y-80688703D01*
X147998964Y-80474113D01*
X148124785Y-80350997D01*
X148261731Y-80555949D01*
X148471775Y-80696297D01*
X148719540Y-80745580D01*
X150624540Y-80745580D01*
X150872305Y-80696297D01*
X151082349Y-80555949D01*
X151222697Y-80345905D01*
X151271980Y-80098140D01*
X151271980Y-78098140D01*
X151222697Y-77850375D01*
X151082349Y-77640331D01*
X150872305Y-77499983D01*
X150624540Y-77450700D01*
X148719540Y-77450700D01*
X148471775Y-77499983D01*
X148261731Y-77640331D01*
X148124785Y-77845283D01*
X147998964Y-77722167D01*
X147505020Y-77507577D01*
X147259040Y-77627546D01*
X147005040Y-77627546D01*
X146759060Y-77507577D01*
X146265116Y-77722167D01*
X145871199Y-78107614D01*
X145736563Y-77906117D01*
X145528992Y-77767423D01*
X145849276Y-77447140D01*
X152097805Y-77447140D01*
X153482041Y-78831377D01*
X153482040Y-88599305D01*
X153354789Y-88906517D01*
X153354789Y-89318265D01*
X153512358Y-89698671D01*
X153803509Y-89989822D01*
X154183915Y-90147391D01*
X154595663Y-90147391D01*
X154869398Y-90034007D01*
X154846695Y-90148140D01*
X154974832Y-90792328D01*
X155339735Y-91338445D01*
X155885852Y-91703348D01*
X156367431Y-91799140D01*
X158216649Y-91799140D01*
X158698228Y-91703348D01*
X159244345Y-91338445D01*
X159609248Y-90792328D01*
X159737385Y-90148140D01*
X159609248Y-89503952D01*
X159244345Y-88957835D01*
X158698228Y-88592932D01*
X158216649Y-88497140D01*
X156367431Y-88497140D01*
X155885852Y-88592932D01*
X155423000Y-88902199D01*
X155267220Y-88526111D01*
X155260040Y-88518931D01*
X155260040Y-86503072D01*
X155272804Y-86525770D01*
X155780897Y-86924864D01*
X156403040Y-87099140D01*
X157165040Y-87099140D01*
X157165040Y-85575140D01*
X157419040Y-85575140D01*
X157419040Y-87099140D01*
X158181040Y-87099140D01*
X158803183Y-86924864D01*
X159311276Y-86525770D01*
X159627966Y-85962617D01*
X159660015Y-85831084D01*
X159540876Y-85575140D01*
X157419040Y-85575140D01*
X157165040Y-85575140D01*
X157145040Y-85575140D01*
X157145040Y-85321140D01*
X157165040Y-85321140D01*
X157165040Y-83797140D01*
X157419040Y-83797140D01*
X157419040Y-85321140D01*
X159540876Y-85321140D01*
X159660015Y-85065196D01*
X159627966Y-84933663D01*
X159311276Y-84370510D01*
X158803183Y-83971416D01*
X158181040Y-83797140D01*
X157419040Y-83797140D01*
X157165040Y-83797140D01*
X156403040Y-83797140D01*
X155780897Y-83971416D01*
X155272804Y-84370510D01*
X155260040Y-84393208D01*
X155260040Y-81819173D01*
X155339735Y-81938445D01*
X155885852Y-82303348D01*
X156367431Y-82399140D01*
X158216649Y-82399140D01*
X158698228Y-82303348D01*
X159244345Y-81938445D01*
X159609248Y-81392328D01*
X159737385Y-80748140D01*
X159609248Y-80103952D01*
X159244345Y-79557835D01*
X158698228Y-79192932D01*
X158216649Y-79097140D01*
X156367431Y-79097140D01*
X155885852Y-79192932D01*
X155339735Y-79557835D01*
X155260040Y-79677107D01*
X155260040Y-78550695D01*
X155277456Y-78463140D01*
X155255658Y-78353556D01*
X155208459Y-78116270D01*
X155011973Y-77822207D01*
X154937747Y-77772611D01*
X153197275Y-76032140D01*
X159572805Y-76032140D01*
X160714805Y-77174140D01*
X160388166Y-77174140D01*
X160007760Y-77331709D01*
X159716609Y-77622860D01*
X159559040Y-78003266D01*
X159559040Y-78415014D01*
X159716609Y-78795420D01*
X160007760Y-79086571D01*
X160388166Y-79244140D01*
X160799914Y-79244140D01*
X161152390Y-79098140D01*
X161241805Y-79098140D01*
X164150041Y-82006377D01*
X164150040Y-106796904D01*
X163146805Y-107800140D01*
X150961040Y-107800140D01*
X150961040Y-107467266D01*
X150843766Y-107184140D01*
X151020914Y-107184140D01*
X151401320Y-107026571D01*
X151692471Y-106735420D01*
X151850040Y-106355014D01*
X151850040Y-106151084D01*
X154924065Y-106151084D01*
X154956114Y-106282617D01*
X155272804Y-106845770D01*
X155780897Y-107244864D01*
X156403040Y-107419140D01*
X157165040Y-107419140D01*
X157165040Y-105895140D01*
X157419040Y-105895140D01*
X157419040Y-107419140D01*
X158181040Y-107419140D01*
X158803183Y-107244864D01*
X159311276Y-106845770D01*
X159627966Y-106282617D01*
X159660015Y-106151084D01*
X159540876Y-105895140D01*
X157419040Y-105895140D01*
X157165040Y-105895140D01*
X155043204Y-105895140D01*
X154924065Y-106151084D01*
X151850040Y-106151084D01*
X151850040Y-105943266D01*
X151692471Y-105562860D01*
X151514807Y-105385196D01*
X154924065Y-105385196D01*
X155043204Y-105641140D01*
X157165040Y-105641140D01*
X157165040Y-104117140D01*
X157419040Y-104117140D01*
X157419040Y-105641140D01*
X159540876Y-105641140D01*
X159660015Y-105385196D01*
X159627966Y-105253663D01*
X159311276Y-104690510D01*
X158803183Y-104291416D01*
X158181040Y-104117140D01*
X157419040Y-104117140D01*
X157165040Y-104117140D01*
X156403040Y-104117140D01*
X155780897Y-104291416D01*
X155272804Y-104690510D01*
X154956114Y-105253663D01*
X154924065Y-105385196D01*
X151514807Y-105385196D01*
X151401320Y-105271709D01*
X151020914Y-105114140D01*
X150857671Y-105114140D01*
X148656040Y-102912510D01*
X148656040Y-101068140D01*
X154846695Y-101068140D01*
X154974832Y-101712328D01*
X155339735Y-102258445D01*
X155885852Y-102623348D01*
X156367431Y-102719140D01*
X158216649Y-102719140D01*
X158698228Y-102623348D01*
X159244345Y-102258445D01*
X159609248Y-101712328D01*
X159737385Y-101068140D01*
X159609248Y-100423952D01*
X159244345Y-99877835D01*
X158698228Y-99512932D01*
X158216649Y-99417140D01*
X156367431Y-99417140D01*
X155885852Y-99512932D01*
X155339735Y-99877835D01*
X154974832Y-100423952D01*
X154846695Y-101068140D01*
X148656040Y-101068140D01*
X148656040Y-95928851D01*
X148771471Y-95813420D01*
X148929040Y-95433014D01*
X148929040Y-95402266D01*
X149272040Y-95402266D01*
X149272040Y-95814014D01*
X149429609Y-96194420D01*
X149720760Y-96485571D01*
X150101166Y-96643140D01*
X150512914Y-96643140D01*
X150893320Y-96485571D01*
X151008751Y-96370140D01*
X154050329Y-96370140D01*
X154165760Y-96485571D01*
X154546166Y-96643140D01*
X154957914Y-96643140D01*
X155338320Y-96485571D01*
X155629471Y-96194420D01*
X155787040Y-95814014D01*
X155787040Y-95402266D01*
X155629471Y-95021860D01*
X155338320Y-94730709D01*
X154957914Y-94573140D01*
X154546166Y-94573140D01*
X154165760Y-94730709D01*
X154050329Y-94846140D01*
X151008751Y-94846140D01*
X150893320Y-94730709D01*
X150512914Y-94573140D01*
X150101166Y-94573140D01*
X149720760Y-94730709D01*
X149429609Y-95021860D01*
X149272040Y-95402266D01*
X148929040Y-95402266D01*
X148929040Y-95021266D01*
X148771471Y-94640860D01*
X148480320Y-94349709D01*
X148160553Y-94217258D01*
X148379790Y-93998021D01*
X148443411Y-93955511D01*
X148611828Y-93703457D01*
X148656040Y-93481188D01*
X148656040Y-93481183D01*
X148670967Y-93406140D01*
X148656040Y-93331097D01*
X148656040Y-92862266D01*
X161718040Y-92862266D01*
X161718040Y-93274014D01*
X161875609Y-93654420D01*
X161991041Y-93769852D01*
X161991040Y-97065429D01*
X161875609Y-97180860D01*
X161718040Y-97561266D01*
X161718040Y-97973014D01*
X161875609Y-98353420D01*
X162166760Y-98644571D01*
X162547166Y-98802140D01*
X162958914Y-98802140D01*
X163339320Y-98644571D01*
X163630471Y-98353420D01*
X163788040Y-97973014D01*
X163788040Y-97561266D01*
X163630471Y-97180860D01*
X163515040Y-97065429D01*
X163515040Y-93769851D01*
X163630471Y-93654420D01*
X163788040Y-93274014D01*
X163788040Y-92862266D01*
X163630471Y-92481860D01*
X163339320Y-92190709D01*
X162958914Y-92033140D01*
X162547166Y-92033140D01*
X162166760Y-92190709D01*
X161875609Y-92481860D01*
X161718040Y-92862266D01*
X148656040Y-92862266D01*
X148656040Y-89705851D01*
X148771471Y-89590420D01*
X148929040Y-89210014D01*
X148929040Y-88798266D01*
X148771471Y-88417860D01*
X148588611Y-88235000D01*
X148905874Y-88235000D01*
X149286280Y-88077431D01*
X149577431Y-87786280D01*
X149735000Y-87405874D01*
X149735000Y-86994126D01*
X149577431Y-86613720D01*
X149286280Y-86322569D01*
X148905874Y-86165000D01*
X148494126Y-86165000D01*
X148113720Y-86322569D01*
X147990481Y-86445808D01*
X143744408Y-86492809D01*
X143673540Y-86478712D01*
X143594319Y-86494470D01*
X143590064Y-86494517D01*
X143520742Y-86509105D01*
X143376222Y-86537852D01*
X143372581Y-86540285D01*
X143368298Y-86541186D01*
X143246744Y-86624367D01*
X143187792Y-86663757D01*
X143184780Y-86666769D01*
X143118123Y-86712383D01*
X143078649Y-86772900D01*
X141374410Y-88477140D01*
X141211166Y-88477140D01*
X140830760Y-88634709D01*
X140539609Y-88925860D01*
X140382040Y-89306266D01*
X140382040Y-89718014D01*
X140539609Y-90098420D01*
X140830760Y-90389571D01*
X141211166Y-90547140D01*
X141622914Y-90547140D01*
X142003320Y-90389571D01*
X142294471Y-90098420D01*
X142452040Y-89718014D01*
X142452040Y-89554770D01*
X143992659Y-88014152D01*
X147677981Y-87973359D01*
X147307760Y-88126709D01*
X147016609Y-88417860D01*
X146859040Y-88798266D01*
X146859040Y-89210014D01*
X147016609Y-89590420D01*
X147132041Y-89705852D01*
X147132040Y-93090509D01*
X147063536Y-93159013D01*
X146993471Y-92989860D01*
X146878040Y-92874429D01*
X146878040Y-90291083D01*
X146892967Y-90216040D01*
X146878040Y-90140997D01*
X146878040Y-90140992D01*
X146833828Y-89918723D01*
X146665411Y-89666669D01*
X146601790Y-89624159D01*
X145591883Y-88614253D01*
X145549371Y-88550629D01*
X145443799Y-88480088D01*
X145186280Y-88222569D01*
X144805874Y-88065000D01*
X144394126Y-88065000D01*
X144013720Y-88222569D01*
X143722569Y-88513720D01*
X143565000Y-88894126D01*
X143565000Y-89305874D01*
X143722569Y-89686280D01*
X144013720Y-89977431D01*
X144394126Y-90135000D01*
X144805874Y-90135000D01*
X144912998Y-90090628D01*
X145354040Y-90531671D01*
X145354041Y-92874428D01*
X145238609Y-92989860D01*
X145084950Y-93360826D01*
X144894166Y-93360826D01*
X144513760Y-93518395D01*
X144398329Y-93633826D01*
X141033437Y-93633826D01*
X140860320Y-93460709D01*
X140479914Y-93303140D01*
X140068166Y-93303140D01*
X139687760Y-93460709D01*
X139396609Y-93751860D01*
X139239040Y-94132266D01*
X139239040Y-94544014D01*
X139387951Y-94903518D01*
X139269609Y-95021860D01*
X139112040Y-95402266D01*
X139112040Y-95814014D01*
X139269609Y-96194420D01*
X139560760Y-96485571D01*
X139941166Y-96643140D01*
X140352914Y-96643140D01*
X140733320Y-96485571D01*
X140848751Y-96370140D01*
X143255329Y-96370140D01*
X143370760Y-96485571D01*
X143629716Y-96592834D01*
X139793782Y-100428768D01*
X139730161Y-100471278D01*
X139687650Y-100534900D01*
X139687649Y-100534901D01*
X139561744Y-100723332D01*
X139502604Y-101020649D01*
X139517532Y-101095697D01*
X139517531Y-102200464D01*
X139402100Y-102315895D01*
X139244531Y-102696301D01*
X139244531Y-103108049D01*
X139402100Y-103488455D01*
X139693251Y-103779606D01*
X140073657Y-103937175D01*
X140485405Y-103937175D01*
X140865811Y-103779606D01*
X141156962Y-103488455D01*
X141314531Y-103108049D01*
X141314531Y-102696301D01*
X141156962Y-102315895D01*
X141041531Y-102200464D01*
X141041531Y-101336279D01*
X145997040Y-96380771D01*
X145997040Y-96674014D01*
X146154609Y-97054420D01*
X146270040Y-97169851D01*
X146270041Y-99075508D01*
X142963294Y-102382256D01*
X142963291Y-102382258D01*
X139293784Y-106051766D01*
X139220876Y-105895140D01*
X137099040Y-105895140D01*
X137099040Y-107419140D01*
X137861040Y-107419140D01*
X138096040Y-107353311D01*
X138096040Y-107498014D01*
X138253609Y-107878420D01*
X138544760Y-108169571D01*
X138925166Y-108327140D01*
X139336914Y-108327140D01*
X139717320Y-108169571D01*
X140008471Y-107878420D01*
X140166040Y-107498014D01*
X140166040Y-107334770D01*
X141686144Y-105814666D01*
X141644782Y-105914524D01*
X141644782Y-106326272D01*
X141802351Y-106706678D01*
X142093502Y-106997829D01*
X142473908Y-107155398D01*
X142637152Y-107155398D01*
X143640642Y-108158889D01*
X143683153Y-108222511D01*
X143935207Y-108390928D01*
X144157476Y-108435140D01*
X144157477Y-108435140D01*
X144232524Y-108450068D01*
X144307571Y-108435140D01*
X145160329Y-108435140D01*
X144984609Y-108610860D01*
X144827040Y-108991266D01*
X144827040Y-109403014D01*
X144984609Y-109783420D01*
X145275760Y-110074571D01*
X145656166Y-110232140D01*
X146067914Y-110232140D01*
X146448320Y-110074571D01*
X146739471Y-109783420D01*
X146824501Y-109578140D01*
X149005722Y-109578140D01*
X148977792Y-109589709D01*
X148686641Y-109880860D01*
X148529072Y-110261266D01*
X148529072Y-110673014D01*
X148622881Y-110899489D01*
X148484370Y-111038000D01*
X144840328Y-111038000D01*
X144834471Y-111023860D01*
X144543320Y-110732709D01*
X144162914Y-110575140D01*
X143751166Y-110575140D01*
X143370760Y-110732709D01*
X143079609Y-111023860D01*
X142922040Y-111404266D01*
X142922040Y-111724154D01*
X142862760Y-111748709D01*
X142571609Y-112039860D01*
X142414040Y-112420266D01*
X142414040Y-112832014D01*
X142571609Y-113212420D01*
X142862760Y-113503571D01*
X143243166Y-113661140D01*
X143654914Y-113661140D01*
X144035320Y-113503571D01*
X144277751Y-113261140D01*
X149225817Y-113261140D01*
X149300860Y-113276067D01*
X149375903Y-113261140D01*
X149375908Y-113261140D01*
X149598177Y-113216928D01*
X149850231Y-113048511D01*
X149892743Y-112984887D01*
X150867491Y-112010140D01*
X151020914Y-112010140D01*
X151401320Y-111852571D01*
X151692471Y-111561420D01*
X151850040Y-111181014D01*
X151850040Y-110769266D01*
X151692471Y-110388860D01*
X151401320Y-110097709D01*
X151020914Y-109940140D01*
X150609166Y-109940140D01*
X150487015Y-109990736D01*
X150441503Y-109880860D01*
X150150352Y-109589709D01*
X150122422Y-109578140D01*
X155139078Y-109578140D01*
X154974832Y-109823952D01*
X154846695Y-110468140D01*
X154974832Y-111112328D01*
X155339735Y-111658445D01*
X155885852Y-112023348D01*
X156367431Y-112119140D01*
X158216649Y-112119140D01*
X158698228Y-112023348D01*
X159244345Y-111658445D01*
X159609248Y-111112328D01*
X159737385Y-110468140D01*
X159609248Y-109823952D01*
X159445002Y-109578140D01*
X163427485Y-109578140D01*
X163515040Y-109595556D01*
X163602595Y-109578140D01*
X163602596Y-109578140D01*
X163861910Y-109526559D01*
X164155973Y-109330073D01*
X164205571Y-109255844D01*
X165039041Y-108422375D01*
X165039041Y-116702903D01*
X164162805Y-117579140D01*
X151770751Y-117579140D01*
X151946471Y-117403420D01*
X152104040Y-117023014D01*
X152104040Y-116611266D01*
X151946471Y-116230860D01*
X151831040Y-116115429D01*
X151831040Y-114156900D01*
X151912960Y-114074980D01*
X152070529Y-113694574D01*
X152070529Y-113282826D01*
X152028876Y-113182266D01*
X161718040Y-113182266D01*
X161718040Y-113594014D01*
X161875609Y-113974420D01*
X161991041Y-114089852D01*
X161991040Y-115480429D01*
X161875609Y-115595860D01*
X161718040Y-115976266D01*
X161718040Y-116388014D01*
X161875609Y-116768420D01*
X162166760Y-117059571D01*
X162547166Y-117217140D01*
X162958914Y-117217140D01*
X163339320Y-117059571D01*
X163630471Y-116768420D01*
X163788040Y-116388014D01*
X163788040Y-115976266D01*
X163630471Y-115595860D01*
X163515040Y-115480429D01*
X163515040Y-114089851D01*
X163630471Y-113974420D01*
X163788040Y-113594014D01*
X163788040Y-113182266D01*
X163630471Y-112801860D01*
X163339320Y-112510709D01*
X162958914Y-112353140D01*
X162547166Y-112353140D01*
X162166760Y-112510709D01*
X161875609Y-112801860D01*
X161718040Y-113182266D01*
X152028876Y-113182266D01*
X151912960Y-112902420D01*
X151621809Y-112611269D01*
X151241403Y-112453700D01*
X150829655Y-112453700D01*
X150449249Y-112611269D01*
X150158098Y-112902420D01*
X150000529Y-113282826D01*
X150000529Y-113694574D01*
X150158098Y-114074980D01*
X150307041Y-114223923D01*
X150307040Y-116115429D01*
X150191609Y-116230860D01*
X150034040Y-116611266D01*
X150034040Y-117023014D01*
X150191609Y-117403420D01*
X150367329Y-117579140D01*
X150357390Y-117579140D01*
X150004914Y-117433140D01*
X149593166Y-117433140D01*
X149212760Y-117590709D01*
X148921609Y-117881860D01*
X148764040Y-118262266D01*
X148764040Y-118674014D01*
X148921609Y-119054420D01*
X149212760Y-119345571D01*
X149593166Y-119503140D01*
X150004914Y-119503140D01*
X150357390Y-119357140D01*
X164443485Y-119357140D01*
X164531040Y-119374556D01*
X164618595Y-119357140D01*
X164618596Y-119357140D01*
X164877910Y-119305559D01*
X165171973Y-119109073D01*
X165221571Y-119034844D01*
X166222041Y-118034375D01*
X166222041Y-155058140D01*
X128042040Y-155058140D01*
X128042040Y-153237179D01*
X135180136Y-153237179D01*
X135197673Y-153319959D01*
X135467540Y-153813036D01*
X135905557Y-154165306D01*
X136445040Y-154323140D01*
X136845040Y-154323140D01*
X136845040Y-153015140D01*
X137099040Y-153015140D01*
X137099040Y-154323140D01*
X137499040Y-154323140D01*
X138038523Y-154165306D01*
X138444663Y-153838672D01*
X142857113Y-153838672D01*
X142955776Y-154105527D01*
X143565501Y-154332048D01*
X144215500Y-154307996D01*
X144704304Y-154105527D01*
X144802967Y-153838672D01*
X149357113Y-153838672D01*
X149455776Y-154105527D01*
X150065501Y-154332048D01*
X150715500Y-154307996D01*
X151204304Y-154105527D01*
X151302967Y-153838672D01*
X150330040Y-152865745D01*
X149357113Y-153838672D01*
X144802967Y-153838672D01*
X143830040Y-152865745D01*
X142857113Y-153838672D01*
X138444663Y-153838672D01*
X138476540Y-153813036D01*
X138746407Y-153319959D01*
X138763944Y-153237179D01*
X138641955Y-153015140D01*
X137099040Y-153015140D01*
X136845040Y-153015140D01*
X135302125Y-153015140D01*
X135180136Y-153237179D01*
X128042040Y-153237179D01*
X128042040Y-152539101D01*
X135180136Y-152539101D01*
X135302125Y-152761140D01*
X136845040Y-152761140D01*
X136845040Y-151453140D01*
X137099040Y-151453140D01*
X137099040Y-152761140D01*
X138641955Y-152761140D01*
X138763944Y-152539101D01*
X138746407Y-152456321D01*
X138727405Y-152421601D01*
X142184132Y-152421601D01*
X142208184Y-153071600D01*
X142410653Y-153560404D01*
X142677508Y-153659067D01*
X143650435Y-152686140D01*
X144009645Y-152686140D01*
X144982572Y-153659067D01*
X145249427Y-153560404D01*
X145475948Y-152950679D01*
X145456371Y-152421601D01*
X148684132Y-152421601D01*
X148708184Y-153071600D01*
X148910653Y-153560404D01*
X149177508Y-153659067D01*
X150150435Y-152686140D01*
X150509645Y-152686140D01*
X151482572Y-153659067D01*
X151749427Y-153560404D01*
X151869509Y-153237179D01*
X155500136Y-153237179D01*
X155517673Y-153319959D01*
X155787540Y-153813036D01*
X156225557Y-154165306D01*
X156765040Y-154323140D01*
X157165040Y-154323140D01*
X157165040Y-153015140D01*
X157419040Y-153015140D01*
X157419040Y-154323140D01*
X157819040Y-154323140D01*
X158358523Y-154165306D01*
X158796540Y-153813036D01*
X159066407Y-153319959D01*
X159083944Y-153237179D01*
X158961955Y-153015140D01*
X157419040Y-153015140D01*
X157165040Y-153015140D01*
X155622125Y-153015140D01*
X155500136Y-153237179D01*
X151869509Y-153237179D01*
X151975948Y-152950679D01*
X151960719Y-152539101D01*
X155500136Y-152539101D01*
X155622125Y-152761140D01*
X157165040Y-152761140D01*
X157165040Y-151453140D01*
X157419040Y-151453140D01*
X157419040Y-152761140D01*
X158961955Y-152761140D01*
X159083944Y-152539101D01*
X159066407Y-152456321D01*
X158796540Y-151963244D01*
X158358523Y-151610974D01*
X157819040Y-151453140D01*
X157419040Y-151453140D01*
X157165040Y-151453140D01*
X156765040Y-151453140D01*
X156225557Y-151610974D01*
X155787540Y-151963244D01*
X155517673Y-152456321D01*
X155500136Y-152539101D01*
X151960719Y-152539101D01*
X151951896Y-152300680D01*
X151749427Y-151811876D01*
X151482572Y-151713213D01*
X150509645Y-152686140D01*
X150150435Y-152686140D01*
X149177508Y-151713213D01*
X148910653Y-151811876D01*
X148684132Y-152421601D01*
X145456371Y-152421601D01*
X145451896Y-152300680D01*
X145249427Y-151811876D01*
X144982572Y-151713213D01*
X144009645Y-152686140D01*
X143650435Y-152686140D01*
X142677508Y-151713213D01*
X142410653Y-151811876D01*
X142184132Y-152421601D01*
X138727405Y-152421601D01*
X138476540Y-151963244D01*
X138038523Y-151610974D01*
X137774083Y-151533608D01*
X142857113Y-151533608D01*
X143830040Y-152506535D01*
X144802967Y-151533608D01*
X149357113Y-151533608D01*
X150330040Y-152506535D01*
X151302967Y-151533608D01*
X151204304Y-151266753D01*
X150594579Y-151040232D01*
X149944580Y-151064284D01*
X149455776Y-151266753D01*
X149357113Y-151533608D01*
X144802967Y-151533608D01*
X144704304Y-151266753D01*
X144094579Y-151040232D01*
X143444580Y-151064284D01*
X142955776Y-151266753D01*
X142857113Y-151533608D01*
X137774083Y-151533608D01*
X137499040Y-151453140D01*
X137099040Y-151453140D01*
X136845040Y-151453140D01*
X136445040Y-151453140D01*
X135905557Y-151610974D01*
X135467540Y-151963244D01*
X135197673Y-152456321D01*
X135180136Y-152539101D01*
X128042040Y-152539101D01*
X128042040Y-149788140D01*
X135008927Y-149788140D01*
X135120300Y-150348049D01*
X135437463Y-150822717D01*
X135912131Y-151139880D01*
X136330707Y-151223140D01*
X137613373Y-151223140D01*
X138031949Y-151139880D01*
X138506617Y-150822717D01*
X138823780Y-150348049D01*
X138935153Y-149788140D01*
X138823780Y-149228231D01*
X138506617Y-148753563D01*
X138031949Y-148436400D01*
X137613373Y-148353140D01*
X136330707Y-148353140D01*
X135912131Y-148436400D01*
X135437463Y-148753563D01*
X135120300Y-149228231D01*
X135008927Y-149788140D01*
X128042040Y-149788140D01*
X128042040Y-147860918D01*
X142195040Y-147860918D01*
X142195040Y-148511362D01*
X142443954Y-149112293D01*
X142903887Y-149572226D01*
X143504818Y-149821140D01*
X144155262Y-149821140D01*
X144756193Y-149572226D01*
X145216126Y-149112293D01*
X145465040Y-148511362D01*
X145465040Y-147860918D01*
X148695040Y-147860918D01*
X148695040Y-148511362D01*
X148943954Y-149112293D01*
X149403887Y-149572226D01*
X150004818Y-149821140D01*
X150655262Y-149821140D01*
X150734930Y-149788140D01*
X155328927Y-149788140D01*
X155440300Y-150348049D01*
X155757463Y-150822717D01*
X156232131Y-151139880D01*
X156650707Y-151223140D01*
X157933373Y-151223140D01*
X158351949Y-151139880D01*
X158826617Y-150822717D01*
X159143780Y-150348049D01*
X159255153Y-149788140D01*
X159143780Y-149228231D01*
X158826617Y-148753563D01*
X158351949Y-148436400D01*
X157933373Y-148353140D01*
X156650707Y-148353140D01*
X156232131Y-148436400D01*
X155757463Y-148753563D01*
X155440300Y-149228231D01*
X155328927Y-149788140D01*
X150734930Y-149788140D01*
X151256193Y-149572226D01*
X151716126Y-149112293D01*
X151965040Y-148511362D01*
X151965040Y-147860918D01*
X151716126Y-147259987D01*
X151256193Y-146800054D01*
X150655262Y-146551140D01*
X150004818Y-146551140D01*
X149403887Y-146800054D01*
X148943954Y-147259987D01*
X148695040Y-147860918D01*
X145465040Y-147860918D01*
X145216126Y-147259987D01*
X144756193Y-146800054D01*
X144155262Y-146551140D01*
X143504818Y-146551140D01*
X142903887Y-146800054D01*
X142443954Y-147259987D01*
X142195040Y-147860918D01*
X128042040Y-147860918D01*
X128042040Y-144153890D01*
X144327040Y-144153890D01*
X144327040Y-144894450D01*
X144423713Y-145127839D01*
X144602342Y-145306467D01*
X144835731Y-145403140D01*
X145576290Y-145403140D01*
X145735040Y-145244390D01*
X145735040Y-143995140D01*
X144485790Y-143995140D01*
X144327040Y-144153890D01*
X128042040Y-144153890D01*
X128042040Y-141488140D01*
X135009907Y-141488140D01*
X135117399Y-142028540D01*
X135423511Y-142486669D01*
X135881640Y-142792781D01*
X136285633Y-142873140D01*
X137658447Y-142873140D01*
X137815853Y-142841830D01*
X144327040Y-142841830D01*
X144327040Y-143582390D01*
X144485790Y-143741140D01*
X145735040Y-143741140D01*
X145735040Y-142491890D01*
X145989040Y-142491890D01*
X145989040Y-143741140D01*
X146009040Y-143741140D01*
X146009040Y-143995140D01*
X145989040Y-143995140D01*
X145989040Y-145244390D01*
X146147790Y-145403140D01*
X146888349Y-145403140D01*
X147121738Y-145306467D01*
X147300367Y-145127839D01*
X147356179Y-144993096D01*
X147532533Y-145169450D01*
X148096710Y-145403140D01*
X148707370Y-145403140D01*
X149271547Y-145169450D01*
X149703350Y-144737647D01*
X149937040Y-144173470D01*
X149937040Y-143562810D01*
X149703350Y-142998633D01*
X149271547Y-142566830D01*
X148707370Y-142333140D01*
X148096710Y-142333140D01*
X147532533Y-142566830D01*
X147356179Y-142743184D01*
X147300367Y-142608441D01*
X147121738Y-142429813D01*
X146888349Y-142333140D01*
X146147790Y-142333140D01*
X145989040Y-142491890D01*
X145735040Y-142491890D01*
X145576290Y-142333140D01*
X144835731Y-142333140D01*
X144602342Y-142429813D01*
X144423713Y-142608441D01*
X144327040Y-142841830D01*
X137815853Y-142841830D01*
X138062440Y-142792781D01*
X138520569Y-142486669D01*
X138826681Y-142028540D01*
X138934173Y-141488140D01*
X155329907Y-141488140D01*
X155437399Y-142028540D01*
X155743511Y-142486669D01*
X156201640Y-142792781D01*
X156605633Y-142873140D01*
X157978447Y-142873140D01*
X158382440Y-142792781D01*
X158840569Y-142486669D01*
X159146681Y-142028540D01*
X159254173Y-141488140D01*
X159146681Y-140947740D01*
X158840569Y-140489611D01*
X158382440Y-140183499D01*
X157978447Y-140103140D01*
X156605633Y-140103140D01*
X156201640Y-140183499D01*
X155743511Y-140489611D01*
X155437399Y-140947740D01*
X155329907Y-141488140D01*
X138934173Y-141488140D01*
X138826681Y-140947740D01*
X138520569Y-140489611D01*
X138062440Y-140183499D01*
X137658447Y-140103140D01*
X136285633Y-140103140D01*
X135881640Y-140183499D01*
X135423511Y-140489611D01*
X135117399Y-140947740D01*
X135009907Y-141488140D01*
X128042040Y-141488140D01*
X128042040Y-139073890D01*
X144327040Y-139073890D01*
X144327040Y-139814450D01*
X144423713Y-140047839D01*
X144602342Y-140226467D01*
X144835731Y-140323140D01*
X145576290Y-140323140D01*
X145735040Y-140164390D01*
X145735040Y-138915140D01*
X144485790Y-138915140D01*
X144327040Y-139073890D01*
X128042040Y-139073890D01*
X128042040Y-137761830D01*
X144327040Y-137761830D01*
X144327040Y-138502390D01*
X144485790Y-138661140D01*
X145735040Y-138661140D01*
X145735040Y-137411890D01*
X145989040Y-137411890D01*
X145989040Y-138661140D01*
X146009040Y-138661140D01*
X146009040Y-138915140D01*
X145989040Y-138915140D01*
X145989040Y-140164390D01*
X146147790Y-140323140D01*
X146888349Y-140323140D01*
X147121738Y-140226467D01*
X147300367Y-140047839D01*
X147356179Y-139913096D01*
X147532533Y-140089450D01*
X148096710Y-140323140D01*
X148707370Y-140323140D01*
X149271547Y-140089450D01*
X149703350Y-139657647D01*
X149937040Y-139093470D01*
X149937040Y-138482810D01*
X149703350Y-137918633D01*
X149271547Y-137486830D01*
X148707370Y-137253140D01*
X148096710Y-137253140D01*
X147532533Y-137486830D01*
X147356179Y-137663184D01*
X147300367Y-137528441D01*
X147121738Y-137349813D01*
X146888349Y-137253140D01*
X146147790Y-137253140D01*
X145989040Y-137411890D01*
X145735040Y-137411890D01*
X145576290Y-137253140D01*
X144835731Y-137253140D01*
X144602342Y-137349813D01*
X144423713Y-137528441D01*
X144327040Y-137761830D01*
X128042040Y-137761830D01*
X128042040Y-136533890D01*
X154487040Y-136533890D01*
X154487040Y-137274450D01*
X154583713Y-137507839D01*
X154762342Y-137686467D01*
X154995731Y-137783140D01*
X155736290Y-137783140D01*
X155895040Y-137624390D01*
X155895040Y-136375140D01*
X154645790Y-136375140D01*
X154487040Y-136533890D01*
X128042040Y-136533890D01*
X128042040Y-132917179D01*
X135180136Y-132917179D01*
X135197673Y-132999959D01*
X135467540Y-133493036D01*
X135905557Y-133845306D01*
X136445040Y-134003140D01*
X136845040Y-134003140D01*
X136845040Y-132695140D01*
X137099040Y-132695140D01*
X137099040Y-134003140D01*
X137499040Y-134003140D01*
X137530656Y-133993890D01*
X144327040Y-133993890D01*
X144327040Y-134734450D01*
X144423713Y-134967839D01*
X144602342Y-135146467D01*
X144835731Y-135243140D01*
X145576290Y-135243140D01*
X145735040Y-135084390D01*
X145735040Y-133835140D01*
X144485790Y-133835140D01*
X144327040Y-133993890D01*
X137530656Y-133993890D01*
X138038523Y-133845306D01*
X138476540Y-133493036D01*
X138746407Y-132999959D01*
X138763944Y-132917179D01*
X138641955Y-132695140D01*
X137099040Y-132695140D01*
X136845040Y-132695140D01*
X135302125Y-132695140D01*
X135180136Y-132917179D01*
X128042040Y-132917179D01*
X128042040Y-132681830D01*
X144327040Y-132681830D01*
X144327040Y-133422390D01*
X144485790Y-133581140D01*
X145735040Y-133581140D01*
X145735040Y-132331890D01*
X145989040Y-132331890D01*
X145989040Y-133581140D01*
X146009040Y-133581140D01*
X146009040Y-133835140D01*
X145989040Y-133835140D01*
X145989040Y-135084390D01*
X146147790Y-135243140D01*
X146888349Y-135243140D01*
X147121738Y-135146467D01*
X147300367Y-134967839D01*
X147356179Y-134833096D01*
X147532533Y-135009450D01*
X148096710Y-135243140D01*
X148707370Y-135243140D01*
X148758816Y-135221830D01*
X154487040Y-135221830D01*
X154487040Y-135962390D01*
X154645790Y-136121140D01*
X155895040Y-136121140D01*
X155895040Y-134871890D01*
X156149040Y-134871890D01*
X156149040Y-136121140D01*
X156169040Y-136121140D01*
X156169040Y-136375140D01*
X156149040Y-136375140D01*
X156149040Y-137624390D01*
X156307790Y-137783140D01*
X157048349Y-137783140D01*
X157281738Y-137686467D01*
X157460367Y-137507839D01*
X157516179Y-137373096D01*
X157692533Y-137549450D01*
X158256710Y-137783140D01*
X158867370Y-137783140D01*
X159431547Y-137549450D01*
X159863350Y-137117647D01*
X160097040Y-136553470D01*
X160097040Y-135942810D01*
X159863350Y-135378633D01*
X159431547Y-134946830D01*
X158867370Y-134713140D01*
X158256710Y-134713140D01*
X157692533Y-134946830D01*
X157516179Y-135123184D01*
X157460367Y-134988441D01*
X157281738Y-134809813D01*
X157048349Y-134713140D01*
X156307790Y-134713140D01*
X156149040Y-134871890D01*
X155895040Y-134871890D01*
X155736290Y-134713140D01*
X154995731Y-134713140D01*
X154762342Y-134809813D01*
X154583713Y-134988441D01*
X154487040Y-135221830D01*
X148758816Y-135221830D01*
X149271547Y-135009450D01*
X149703350Y-134577647D01*
X149937040Y-134013470D01*
X149937040Y-133402810D01*
X149735885Y-132917179D01*
X155500136Y-132917179D01*
X155517673Y-132999959D01*
X155787540Y-133493036D01*
X156225557Y-133845306D01*
X156765040Y-134003140D01*
X157165040Y-134003140D01*
X157165040Y-132695140D01*
X157419040Y-132695140D01*
X157419040Y-134003140D01*
X157819040Y-134003140D01*
X158358523Y-133845306D01*
X158796540Y-133493036D01*
X159066407Y-132999959D01*
X159083944Y-132917179D01*
X158961955Y-132695140D01*
X157419040Y-132695140D01*
X157165040Y-132695140D01*
X155622125Y-132695140D01*
X155500136Y-132917179D01*
X149735885Y-132917179D01*
X149703350Y-132838633D01*
X149271547Y-132406830D01*
X148818330Y-132219101D01*
X155500136Y-132219101D01*
X155622125Y-132441140D01*
X157165040Y-132441140D01*
X157165040Y-131133140D01*
X157419040Y-131133140D01*
X157419040Y-132441140D01*
X158961955Y-132441140D01*
X159083944Y-132219101D01*
X159066407Y-132136321D01*
X158796540Y-131643244D01*
X158358523Y-131290974D01*
X157819040Y-131133140D01*
X157419040Y-131133140D01*
X157165040Y-131133140D01*
X156765040Y-131133140D01*
X156225557Y-131290974D01*
X155787540Y-131643244D01*
X155517673Y-132136321D01*
X155500136Y-132219101D01*
X148818330Y-132219101D01*
X148707370Y-132173140D01*
X148096710Y-132173140D01*
X147532533Y-132406830D01*
X147356179Y-132583184D01*
X147300367Y-132448441D01*
X147121738Y-132269813D01*
X146888349Y-132173140D01*
X146147790Y-132173140D01*
X145989040Y-132331890D01*
X145735040Y-132331890D01*
X145576290Y-132173140D01*
X144835731Y-132173140D01*
X144602342Y-132269813D01*
X144423713Y-132448441D01*
X144327040Y-132681830D01*
X128042040Y-132681830D01*
X128042040Y-132219101D01*
X135180136Y-132219101D01*
X135302125Y-132441140D01*
X136845040Y-132441140D01*
X136845040Y-131133140D01*
X137099040Y-131133140D01*
X137099040Y-132441140D01*
X138641955Y-132441140D01*
X138763944Y-132219101D01*
X138746407Y-132136321D01*
X138476540Y-131643244D01*
X138038523Y-131290974D01*
X137499040Y-131133140D01*
X137099040Y-131133140D01*
X136845040Y-131133140D01*
X136445040Y-131133140D01*
X135905557Y-131290974D01*
X135467540Y-131643244D01*
X135197673Y-132136321D01*
X135180136Y-132219101D01*
X128042040Y-132219101D01*
X128042040Y-129817179D01*
X135080136Y-129817179D01*
X135097673Y-129899959D01*
X135367540Y-130393036D01*
X135805557Y-130745306D01*
X136345040Y-130903140D01*
X136845040Y-130903140D01*
X136845040Y-129595140D01*
X137099040Y-129595140D01*
X137099040Y-130903140D01*
X137599040Y-130903140D01*
X138138523Y-130745306D01*
X138576540Y-130393036D01*
X138846407Y-129899959D01*
X138863944Y-129817179D01*
X138741955Y-129595140D01*
X137099040Y-129595140D01*
X136845040Y-129595140D01*
X135202125Y-129595140D01*
X135080136Y-129817179D01*
X128042040Y-129817179D01*
X128042040Y-129119101D01*
X135080136Y-129119101D01*
X135202125Y-129341140D01*
X136845040Y-129341140D01*
X136845040Y-128033140D01*
X137099040Y-128033140D01*
X137099040Y-129341140D01*
X138741955Y-129341140D01*
X138863944Y-129119101D01*
X138846407Y-129036321D01*
X138779400Y-128913890D01*
X144327040Y-128913890D01*
X144327040Y-129654450D01*
X144423713Y-129887839D01*
X144602342Y-130066467D01*
X144835731Y-130163140D01*
X145576290Y-130163140D01*
X145735040Y-130004390D01*
X145735040Y-128755140D01*
X144485790Y-128755140D01*
X144327040Y-128913890D01*
X138779400Y-128913890D01*
X138576540Y-128543244D01*
X138138523Y-128190974D01*
X137599040Y-128033140D01*
X137099040Y-128033140D01*
X136845040Y-128033140D01*
X136345040Y-128033140D01*
X135805557Y-128190974D01*
X135367540Y-128543244D01*
X135097673Y-129036321D01*
X135080136Y-129119101D01*
X128042040Y-129119101D01*
X128042040Y-127601830D01*
X144327040Y-127601830D01*
X144327040Y-128342390D01*
X144485790Y-128501140D01*
X145735040Y-128501140D01*
X145735040Y-127251890D01*
X145989040Y-127251890D01*
X145989040Y-128501140D01*
X146009040Y-128501140D01*
X146009040Y-128755140D01*
X145989040Y-128755140D01*
X145989040Y-130004390D01*
X146147790Y-130163140D01*
X146888349Y-130163140D01*
X147121738Y-130066467D01*
X147300367Y-129887839D01*
X147356179Y-129753096D01*
X147532533Y-129929450D01*
X148096710Y-130163140D01*
X148707370Y-130163140D01*
X149271547Y-129929450D01*
X149703350Y-129497647D01*
X149715572Y-129468140D01*
X155328927Y-129468140D01*
X155440300Y-130028049D01*
X155757463Y-130502717D01*
X156232131Y-130819880D01*
X156650707Y-130903140D01*
X157933373Y-130903140D01*
X158351949Y-130819880D01*
X158826617Y-130502717D01*
X159143780Y-130028049D01*
X159255153Y-129468140D01*
X159143780Y-128908231D01*
X158826617Y-128433563D01*
X158351949Y-128116400D01*
X157933373Y-128033140D01*
X156650707Y-128033140D01*
X156232131Y-128116400D01*
X155757463Y-128433563D01*
X155440300Y-128908231D01*
X155328927Y-129468140D01*
X149715572Y-129468140D01*
X149937040Y-128933470D01*
X149937040Y-128322810D01*
X149703350Y-127758633D01*
X149271547Y-127326830D01*
X148707370Y-127093140D01*
X148096710Y-127093140D01*
X147532533Y-127326830D01*
X147356179Y-127503184D01*
X147300367Y-127368441D01*
X147121738Y-127189813D01*
X146888349Y-127093140D01*
X146147790Y-127093140D01*
X145989040Y-127251890D01*
X145735040Y-127251890D01*
X145576290Y-127093140D01*
X144835731Y-127093140D01*
X144602342Y-127189813D01*
X144423713Y-127368441D01*
X144327040Y-127601830D01*
X128042040Y-127601830D01*
X128042040Y-119615427D01*
X128384166Y-119757140D01*
X128795914Y-119757140D01*
X129176320Y-119599571D01*
X129467471Y-119308420D01*
X129625040Y-118928014D01*
X129625040Y-118516266D01*
X129467471Y-118135860D01*
X129176320Y-117844709D01*
X128823845Y-117698709D01*
X128804050Y-117678915D01*
X128804050Y-109540596D01*
X129249148Y-109749626D01*
X129479040Y-109628959D01*
X129479040Y-108435140D01*
X129459040Y-108435140D01*
X129459040Y-108181140D01*
X129479040Y-108181140D01*
X129479040Y-108161140D01*
X129733040Y-108161140D01*
X129733040Y-108181140D01*
X129753040Y-108181140D01*
X129753040Y-108435140D01*
X129733040Y-108435140D01*
X129733040Y-109628959D01*
X129962932Y-109749626D01*
X130487398Y-109503323D01*
X130749041Y-109216224D01*
X130749040Y-120052429D01*
X130633609Y-120167860D01*
X130476040Y-120548266D01*
X130476040Y-120960014D01*
X130633609Y-121340420D01*
X130924760Y-121631571D01*
X131305166Y-121789140D01*
X131716914Y-121789140D01*
X132097320Y-121631571D01*
X132388471Y-121340420D01*
X132459831Y-121168140D01*
X135009907Y-121168140D01*
X135117399Y-121708540D01*
X135423511Y-122166669D01*
X135881640Y-122472781D01*
X136285633Y-122553140D01*
X137658447Y-122553140D01*
X138062440Y-122472781D01*
X138520569Y-122166669D01*
X138826681Y-121708540D01*
X138934173Y-121168140D01*
X155329907Y-121168140D01*
X155437399Y-121708540D01*
X155743511Y-122166669D01*
X156201640Y-122472781D01*
X156605633Y-122553140D01*
X157978447Y-122553140D01*
X158382440Y-122472781D01*
X158840569Y-122166669D01*
X159146681Y-121708540D01*
X159254173Y-121168140D01*
X159146681Y-120627740D01*
X158840569Y-120169611D01*
X158382440Y-119863499D01*
X157978447Y-119783140D01*
X156605633Y-119783140D01*
X156201640Y-119863499D01*
X155743511Y-120169611D01*
X155437399Y-120627740D01*
X155329907Y-121168140D01*
X138934173Y-121168140D01*
X138826681Y-120627740D01*
X138520569Y-120169611D01*
X138062440Y-119863499D01*
X137658447Y-119783140D01*
X136285633Y-119783140D01*
X135881640Y-119863499D01*
X135423511Y-120169611D01*
X135117399Y-120627740D01*
X135009907Y-121168140D01*
X132459831Y-121168140D01*
X132546040Y-120960014D01*
X132546040Y-120548266D01*
X132388471Y-120167860D01*
X132273040Y-120052429D01*
X132273040Y-110468140D01*
X134526695Y-110468140D01*
X134654832Y-111112328D01*
X135019735Y-111658445D01*
X135565852Y-112023348D01*
X136047431Y-112119140D01*
X137896649Y-112119140D01*
X138378228Y-112023348D01*
X138924345Y-111658445D01*
X139289248Y-111112328D01*
X139417385Y-110468140D01*
X139289248Y-109823952D01*
X138924345Y-109277835D01*
X138378228Y-108912932D01*
X137896649Y-108817140D01*
X136047431Y-108817140D01*
X135565852Y-108912932D01*
X135019735Y-109277835D01*
X134654832Y-109823952D01*
X134526695Y-110468140D01*
X132273040Y-110468140D01*
X132273040Y-109793140D01*
X132292296Y-109793140D01*
X132725458Y-109706979D01*
X133216665Y-109378765D01*
X133544879Y-108887558D01*
X133660132Y-108308140D01*
X133544879Y-107728722D01*
X133216665Y-107237515D01*
X132918279Y-107038140D01*
X133216665Y-106838765D01*
X133544879Y-106347558D01*
X133583959Y-106151084D01*
X134604065Y-106151084D01*
X134636114Y-106282617D01*
X134952804Y-106845770D01*
X135460897Y-107244864D01*
X136083040Y-107419140D01*
X136845040Y-107419140D01*
X136845040Y-105895140D01*
X134723204Y-105895140D01*
X134604065Y-106151084D01*
X133583959Y-106151084D01*
X133660132Y-105768140D01*
X133544879Y-105188722D01*
X133216665Y-104697515D01*
X133198421Y-104685324D01*
X133243805Y-104676297D01*
X133452115Y-104537107D01*
X133573609Y-104830420D01*
X133864760Y-105121571D01*
X134245166Y-105279140D01*
X134629906Y-105279140D01*
X134604065Y-105385196D01*
X134723204Y-105641140D01*
X136845040Y-105641140D01*
X136845040Y-104117140D01*
X137099040Y-104117140D01*
X137099040Y-105641140D01*
X139220876Y-105641140D01*
X139340015Y-105385196D01*
X139307966Y-105253663D01*
X138991276Y-104690510D01*
X138483183Y-104291416D01*
X137861040Y-104117140D01*
X137099040Y-104117140D01*
X136845040Y-104117140D01*
X136083040Y-104117140D01*
X135486040Y-104284373D01*
X135486040Y-104038266D01*
X135328471Y-103657860D01*
X135194040Y-103523429D01*
X135194040Y-102374912D01*
X135565852Y-102623348D01*
X136047431Y-102719140D01*
X137896649Y-102719140D01*
X138378228Y-102623348D01*
X138924345Y-102258445D01*
X139289248Y-101712328D01*
X139417385Y-101068140D01*
X139289248Y-100423952D01*
X138924345Y-99877835D01*
X138378228Y-99512932D01*
X137896649Y-99417140D01*
X136047431Y-99417140D01*
X135565852Y-99512932D01*
X135194040Y-99761368D01*
X135194040Y-99098770D01*
X135806789Y-98486022D01*
X135870411Y-98443511D01*
X136038828Y-98191457D01*
X136083040Y-97969188D01*
X136083040Y-97969187D01*
X136097968Y-97894140D01*
X136083040Y-97819093D01*
X136083040Y-93515851D01*
X136198471Y-93400420D01*
X136356040Y-93020014D01*
X136356040Y-92608266D01*
X136198471Y-92227860D01*
X135907320Y-91936709D01*
X135526914Y-91779140D01*
X135115166Y-91779140D01*
X134734760Y-91936709D01*
X134443609Y-92227860D01*
X134286040Y-92608266D01*
X134286040Y-93020014D01*
X134443609Y-93400420D01*
X134559040Y-93515851D01*
X134559041Y-97578508D01*
X133946293Y-98191257D01*
X133882669Y-98233769D01*
X133714252Y-98485824D01*
X133670040Y-98708093D01*
X133670040Y-98708097D01*
X133655113Y-98783140D01*
X133670040Y-98858183D01*
X133670041Y-103561428D01*
X133643480Y-103587989D01*
X133643480Y-102378140D01*
X133594197Y-102130375D01*
X133453849Y-101920331D01*
X133243805Y-101779983D01*
X132996040Y-101730700D01*
X131296040Y-101730700D01*
X131048275Y-101779983D01*
X130838231Y-101920331D01*
X130697883Y-102130375D01*
X130688856Y-102175759D01*
X130676665Y-102157515D01*
X130185458Y-101829301D01*
X129752296Y-101743140D01*
X129459784Y-101743140D01*
X129391799Y-101756663D01*
X128804050Y-101168915D01*
X128804050Y-97780599D01*
X128916415Y-97948765D01*
X129407622Y-98276979D01*
X129840784Y-98363140D01*
X130133296Y-98363140D01*
X130566458Y-98276979D01*
X131057665Y-97948765D01*
X131385879Y-97457558D01*
X131501132Y-96878140D01*
X131385879Y-96298722D01*
X131057665Y-95807515D01*
X130759279Y-95608140D01*
X131057665Y-95408765D01*
X131385879Y-94917558D01*
X131501132Y-94338140D01*
X131385879Y-93758722D01*
X131057665Y-93267515D01*
X131036007Y-93253044D01*
X131196738Y-93186467D01*
X131375367Y-93007839D01*
X131472040Y-92774450D01*
X131472040Y-92083890D01*
X131313290Y-91925140D01*
X130114040Y-91925140D01*
X130114040Y-91945140D01*
X129860040Y-91945140D01*
X129860040Y-91925140D01*
X129840040Y-91925140D01*
X129840040Y-91671140D01*
X129860040Y-91671140D01*
X129860040Y-90471890D01*
X130114040Y-90471890D01*
X130114040Y-91671140D01*
X131313290Y-91671140D01*
X131472040Y-91512390D01*
X131472040Y-90821830D01*
X131375367Y-90588441D01*
X131196738Y-90409813D01*
X130963349Y-90313140D01*
X130272790Y-90313140D01*
X130114040Y-90471890D01*
X129860040Y-90471890D01*
X129701290Y-90313140D01*
X129010731Y-90313140D01*
X128804050Y-90398750D01*
X128804050Y-90148140D01*
X134526695Y-90148140D01*
X134654832Y-90792328D01*
X135019735Y-91338445D01*
X135565852Y-91703348D01*
X136047431Y-91799140D01*
X137896649Y-91799140D01*
X138378228Y-91703348D01*
X138924345Y-91338445D01*
X138924464Y-91338266D01*
X139493040Y-91338266D01*
X139493040Y-91750014D01*
X139650609Y-92130420D01*
X139941760Y-92421571D01*
X140322166Y-92579140D01*
X140733914Y-92579140D01*
X141114320Y-92421571D01*
X141229751Y-92306140D01*
X142239338Y-92306140D01*
X142399022Y-92465824D01*
X142779428Y-92623393D01*
X143191176Y-92623393D01*
X143571582Y-92465824D01*
X143862733Y-92174673D01*
X144020302Y-91794267D01*
X144020302Y-91382519D01*
X143862733Y-91002113D01*
X143571582Y-90710962D01*
X143191176Y-90553393D01*
X142779428Y-90553393D01*
X142399022Y-90710962D01*
X142327844Y-90782140D01*
X141229751Y-90782140D01*
X141114320Y-90666709D01*
X140733914Y-90509140D01*
X140322166Y-90509140D01*
X139941760Y-90666709D01*
X139650609Y-90957860D01*
X139493040Y-91338266D01*
X138924464Y-91338266D01*
X139289248Y-90792328D01*
X139417385Y-90148140D01*
X139289248Y-89503952D01*
X138924345Y-88957835D01*
X138378228Y-88592932D01*
X137896649Y-88497140D01*
X136047431Y-88497140D01*
X135565852Y-88592932D01*
X135019735Y-88957835D01*
X134654832Y-89503952D01*
X134526695Y-90148140D01*
X128804050Y-90148140D01*
X128804050Y-89983165D01*
X129049320Y-89881571D01*
X129340471Y-89590420D01*
X129498040Y-89210014D01*
X129498040Y-88798266D01*
X129340471Y-88417860D01*
X129049320Y-88126709D01*
X128804050Y-88025115D01*
X128804050Y-86985599D01*
X128916415Y-87153765D01*
X129407622Y-87481979D01*
X129840784Y-87568140D01*
X130133296Y-87568140D01*
X130566458Y-87481979D01*
X131057665Y-87153765D01*
X131385879Y-86662558D01*
X131501132Y-86083140D01*
X131450996Y-85831084D01*
X134604065Y-85831084D01*
X134636114Y-85962617D01*
X134952804Y-86525770D01*
X135460897Y-86924864D01*
X136083040Y-87099140D01*
X136845040Y-87099140D01*
X136845040Y-85575140D01*
X137099040Y-85575140D01*
X137099040Y-87099140D01*
X137861040Y-87099140D01*
X138483183Y-86924864D01*
X138991276Y-86525770D01*
X139307966Y-85962617D01*
X139340015Y-85831084D01*
X139220876Y-85575140D01*
X137099040Y-85575140D01*
X136845040Y-85575140D01*
X134723204Y-85575140D01*
X134604065Y-85831084D01*
X131450996Y-85831084D01*
X131385879Y-85503722D01*
X131092866Y-85065196D01*
X134604065Y-85065196D01*
X134723204Y-85321140D01*
X136845040Y-85321140D01*
X136845040Y-83797140D01*
X137099040Y-83797140D01*
X137099040Y-85321140D01*
X139220876Y-85321140D01*
X139316707Y-85115266D01*
X140382040Y-85115266D01*
X140382040Y-85527014D01*
X140539609Y-85907420D01*
X140830760Y-86198571D01*
X141211166Y-86356140D01*
X141622914Y-86356140D01*
X142003320Y-86198571D01*
X142294471Y-85907420D01*
X142452040Y-85527014D01*
X142452040Y-85363771D01*
X142543633Y-85272177D01*
X148799315Y-85263026D01*
X148913720Y-85377431D01*
X149294126Y-85535000D01*
X149705874Y-85535000D01*
X150086280Y-85377431D01*
X150377431Y-85086280D01*
X150535000Y-84705874D01*
X150535000Y-84294126D01*
X150377431Y-83913720D01*
X150086280Y-83622569D01*
X149705874Y-83465000D01*
X149294126Y-83465000D01*
X148913720Y-83622569D01*
X148797261Y-83739028D01*
X142302032Y-83748531D01*
X142227539Y-83733713D01*
X142151942Y-83748750D01*
X142151378Y-83748751D01*
X142078148Y-83763429D01*
X141930222Y-83792853D01*
X141929741Y-83793174D01*
X141929174Y-83793288D01*
X141804104Y-83877122D01*
X141741791Y-83918758D01*
X141741390Y-83919159D01*
X141677366Y-83962074D01*
X141635262Y-84025287D01*
X141374409Y-84286140D01*
X141211166Y-84286140D01*
X140830760Y-84443709D01*
X140539609Y-84734860D01*
X140382040Y-85115266D01*
X139316707Y-85115266D01*
X139340015Y-85065196D01*
X139307966Y-84933663D01*
X138991276Y-84370510D01*
X138483183Y-83971416D01*
X137861040Y-83797140D01*
X137099040Y-83797140D01*
X136845040Y-83797140D01*
X136083040Y-83797140D01*
X135460897Y-83971416D01*
X134952804Y-84370510D01*
X134636114Y-84933663D01*
X134604065Y-85065196D01*
X131092866Y-85065196D01*
X131057665Y-85012515D01*
X130759279Y-84813140D01*
X131057665Y-84613765D01*
X131385879Y-84122558D01*
X131501132Y-83543140D01*
X131385879Y-82963722D01*
X131057665Y-82472515D01*
X131036007Y-82458044D01*
X131196738Y-82391467D01*
X131375367Y-82212839D01*
X131472040Y-81979450D01*
X131472040Y-81288890D01*
X131313290Y-81130140D01*
X130114040Y-81130140D01*
X130114040Y-81150140D01*
X129860040Y-81150140D01*
X129860040Y-81130140D01*
X129840040Y-81130140D01*
X129840040Y-80876140D01*
X129860040Y-80876140D01*
X129860040Y-79676890D01*
X130114040Y-79676890D01*
X130114040Y-80876140D01*
X131313290Y-80876140D01*
X131441290Y-80748140D01*
X134526695Y-80748140D01*
X134654832Y-81392328D01*
X135019735Y-81938445D01*
X135565852Y-82303348D01*
X136047431Y-82399140D01*
X137896649Y-82399140D01*
X138378228Y-82303348D01*
X138924345Y-81938445D01*
X139007986Y-81813266D01*
X141779040Y-81813266D01*
X141779040Y-82225014D01*
X141936609Y-82605420D01*
X142227760Y-82896571D01*
X142608166Y-83054140D01*
X143019914Y-83054140D01*
X143042170Y-83044921D01*
X143068039Y-83050067D01*
X143143082Y-83035140D01*
X150367329Y-83035140D01*
X150482760Y-83150571D01*
X150863166Y-83308140D01*
X151274914Y-83308140D01*
X151655320Y-83150571D01*
X151946471Y-82859420D01*
X152104040Y-82479014D01*
X152104040Y-82067266D01*
X151946471Y-81686860D01*
X151655320Y-81395709D01*
X151274914Y-81238140D01*
X150863166Y-81238140D01*
X150482760Y-81395709D01*
X150367329Y-81511140D01*
X143723896Y-81511140D01*
X143691471Y-81432860D01*
X143400320Y-81141709D01*
X143019914Y-80984140D01*
X142608166Y-80984140D01*
X142227760Y-81141709D01*
X141936609Y-81432860D01*
X141779040Y-81813266D01*
X139007986Y-81813266D01*
X139289248Y-81392328D01*
X139417385Y-80748140D01*
X139289248Y-80103952D01*
X138924345Y-79557835D01*
X138378228Y-79192932D01*
X137896649Y-79097140D01*
X136047431Y-79097140D01*
X135565852Y-79192932D01*
X135019735Y-79557835D01*
X134654832Y-80103952D01*
X134526695Y-80748140D01*
X131441290Y-80748140D01*
X131472040Y-80717390D01*
X131472040Y-80026830D01*
X131375367Y-79793441D01*
X131196738Y-79614813D01*
X130963349Y-79518140D01*
X130272790Y-79518140D01*
X130114040Y-79676890D01*
X129860040Y-79676890D01*
X129701290Y-79518140D01*
X129010731Y-79518140D01*
X128804050Y-79603750D01*
X128804050Y-78109365D01*
X129593276Y-77320140D01*
X135016690Y-77320140D01*
X135369166Y-77466140D01*
X135780914Y-77466140D01*
X136161320Y-77308571D01*
X136452471Y-77017420D01*
X136610040Y-76637014D01*
X136610040Y-76225266D01*
X136452471Y-75844860D01*
X136161320Y-75553709D01*
X135780914Y-75396140D01*
X135369166Y-75396140D01*
X135016690Y-75542140D01*
X129312596Y-75542140D01*
X129225040Y-75524724D01*
X128878169Y-75593721D01*
X128791362Y-75651724D01*
X128584107Y-75790207D01*
X128534511Y-75864433D01*
X128042040Y-76356904D01*
X128042040Y-73708309D01*
X133571486Y-73708309D01*
X133657892Y-73964793D01*
X134231376Y-74174608D01*
X134841500Y-74148989D01*
X135286188Y-73964793D01*
X135372594Y-73708309D01*
X134472040Y-72807755D01*
X133571486Y-73708309D01*
X128042040Y-73708309D01*
X128042040Y-72387486D01*
X132925582Y-72387486D01*
X132951201Y-72997610D01*
X133135397Y-73442298D01*
X133391881Y-73528704D01*
X134292435Y-72628150D01*
X134651645Y-72628150D01*
X135552199Y-73528704D01*
X135702602Y-73478035D01*
X135710730Y-73497657D01*
X136142533Y-73929460D01*
X136706710Y-74163150D01*
X137317370Y-74163150D01*
X137881547Y-73929460D01*
X138242040Y-73568967D01*
X138602533Y-73929460D01*
X139166710Y-74163150D01*
X139777370Y-74163150D01*
X140341547Y-73929460D01*
X140773350Y-73497657D01*
X141007040Y-72933480D01*
X141007040Y-72322820D01*
X140773350Y-71758643D01*
X140341547Y-71326840D01*
X139777370Y-71093150D01*
X139166710Y-71093150D01*
X138602533Y-71326840D01*
X138242040Y-71687333D01*
X137881547Y-71326840D01*
X137317370Y-71093150D01*
X136706710Y-71093150D01*
X136142533Y-71326840D01*
X135710730Y-71758643D01*
X135702602Y-71778265D01*
X135552199Y-71727596D01*
X134651645Y-72628150D01*
X134292435Y-72628150D01*
X133391881Y-71727596D01*
X133135397Y-71814002D01*
X132925582Y-72387486D01*
X128042040Y-72387486D01*
X128042040Y-71547991D01*
X133571486Y-71547991D01*
X134472040Y-72448545D01*
X135372594Y-71547991D01*
X135286188Y-71291507D01*
X134712704Y-71081692D01*
X134102580Y-71107311D01*
X133657892Y-71291507D01*
X133571486Y-71547991D01*
X128042040Y-71547991D01*
X128042040Y-70628140D01*
X144364600Y-70628140D01*
X144364600Y-72328140D01*
X144413883Y-72575905D01*
X144554231Y-72785949D01*
X144764275Y-72926297D01*
X145012040Y-72975580D01*
X146712040Y-72975580D01*
X146959805Y-72926297D01*
X147169849Y-72785949D01*
X147310197Y-72575905D01*
X147319224Y-72530521D01*
X147331415Y-72548765D01*
X147822622Y-72876979D01*
X148255784Y-72963140D01*
X148548296Y-72963140D01*
X148981458Y-72876979D01*
X149472665Y-72548765D01*
X149800879Y-72057558D01*
X149916132Y-71478140D01*
X149800879Y-70898722D01*
X149472665Y-70407515D01*
X149153562Y-70194297D01*
X149283398Y-70133323D01*
X149561521Y-69828140D01*
X154846695Y-69828140D01*
X154974832Y-70472328D01*
X155339735Y-71018445D01*
X155885852Y-71383348D01*
X156367431Y-71479140D01*
X158216649Y-71479140D01*
X158698228Y-71383348D01*
X159244345Y-71018445D01*
X159609248Y-70472328D01*
X159737385Y-69828140D01*
X159609248Y-69183952D01*
X159244345Y-68637835D01*
X158698228Y-68272932D01*
X158216649Y-68177140D01*
X156367431Y-68177140D01*
X155885852Y-68272932D01*
X155339735Y-68637835D01*
X154974832Y-69183952D01*
X154846695Y-69828140D01*
X149561521Y-69828140D01*
X149673685Y-69705064D01*
X149843516Y-69295030D01*
X149722195Y-69065140D01*
X148529040Y-69065140D01*
X148529040Y-69085140D01*
X148275040Y-69085140D01*
X148275040Y-69065140D01*
X145989040Y-69065140D01*
X145989040Y-69085140D01*
X145735040Y-69085140D01*
X145735040Y-69065140D01*
X144541885Y-69065140D01*
X144420564Y-69295030D01*
X144590395Y-69705064D01*
X144867748Y-70009401D01*
X144764275Y-70029983D01*
X144554231Y-70170331D01*
X144413883Y-70380375D01*
X144364600Y-70628140D01*
X128042040Y-70628140D01*
X128042040Y-65128140D01*
X130003050Y-65128140D01*
X130137706Y-65805103D01*
X130521175Y-66379005D01*
X131095077Y-66762474D01*
X131601160Y-66863140D01*
X132742920Y-66863140D01*
X133249003Y-66762474D01*
X133822905Y-66379005D01*
X134206374Y-65805103D01*
X134341030Y-65128140D01*
X139603050Y-65128140D01*
X139737706Y-65805103D01*
X140121175Y-66379005D01*
X140695077Y-66762474D01*
X141201160Y-66863140D01*
X142342920Y-66863140D01*
X142849003Y-66762474D01*
X142860143Y-66755030D01*
X144420564Y-66755030D01*
X144590395Y-67165064D01*
X144980682Y-67593323D01*
X145139994Y-67668140D01*
X144980682Y-67742957D01*
X144590395Y-68171216D01*
X144420564Y-68581250D01*
X144541885Y-68811140D01*
X145735040Y-68811140D01*
X145735040Y-66525140D01*
X145989040Y-66525140D01*
X145989040Y-68811140D01*
X148275040Y-68811140D01*
X148275040Y-66525140D01*
X148529040Y-66525140D01*
X148529040Y-68811140D01*
X149722195Y-68811140D01*
X149843516Y-68581250D01*
X149673685Y-68171216D01*
X149283398Y-67742957D01*
X149124086Y-67668140D01*
X149283398Y-67593323D01*
X149673685Y-67165064D01*
X149843516Y-66755030D01*
X149722195Y-66525140D01*
X148529040Y-66525140D01*
X148275040Y-66525140D01*
X145989040Y-66525140D01*
X145735040Y-66525140D01*
X144541885Y-66525140D01*
X144420564Y-66755030D01*
X142860143Y-66755030D01*
X143422905Y-66379005D01*
X143806374Y-65805103D01*
X143941030Y-65128140D01*
X143806374Y-64451177D01*
X143648586Y-64215030D01*
X144420564Y-64215030D01*
X144590395Y-64625064D01*
X144980682Y-65053323D01*
X145139994Y-65128140D01*
X144980682Y-65202957D01*
X144590395Y-65631216D01*
X144420564Y-66041250D01*
X144541885Y-66271140D01*
X145735040Y-66271140D01*
X145735040Y-63985140D01*
X145989040Y-63985140D01*
X145989040Y-66271140D01*
X148275040Y-66271140D01*
X148275040Y-63985140D01*
X148529040Y-63985140D01*
X148529040Y-66271140D01*
X149722195Y-66271140D01*
X149843516Y-66041250D01*
X149673685Y-65631216D01*
X149564205Y-65511084D01*
X154924065Y-65511084D01*
X154956114Y-65642617D01*
X155272804Y-66205770D01*
X155780897Y-66604864D01*
X156403040Y-66779140D01*
X157165040Y-66779140D01*
X157165040Y-65255140D01*
X157419040Y-65255140D01*
X157419040Y-66779140D01*
X158181040Y-66779140D01*
X158803183Y-66604864D01*
X159311276Y-66205770D01*
X159627966Y-65642617D01*
X159660015Y-65511084D01*
X159540876Y-65255140D01*
X157419040Y-65255140D01*
X157165040Y-65255140D01*
X155043204Y-65255140D01*
X154924065Y-65511084D01*
X149564205Y-65511084D01*
X149283398Y-65202957D01*
X149124086Y-65128140D01*
X149283398Y-65053323D01*
X149564204Y-64745196D01*
X154924065Y-64745196D01*
X155043204Y-65001140D01*
X157165040Y-65001140D01*
X157165040Y-63477140D01*
X157419040Y-63477140D01*
X157419040Y-65001140D01*
X159540876Y-65001140D01*
X159660015Y-64745196D01*
X159627966Y-64613663D01*
X159311276Y-64050510D01*
X158803183Y-63651416D01*
X158181040Y-63477140D01*
X157419040Y-63477140D01*
X157165040Y-63477140D01*
X156403040Y-63477140D01*
X155780897Y-63651416D01*
X155272804Y-64050510D01*
X154956114Y-64613663D01*
X154924065Y-64745196D01*
X149564204Y-64745196D01*
X149673685Y-64625064D01*
X149843516Y-64215030D01*
X149722195Y-63985140D01*
X148529040Y-63985140D01*
X148275040Y-63985140D01*
X145989040Y-63985140D01*
X145735040Y-63985140D01*
X144541885Y-63985140D01*
X144420564Y-64215030D01*
X143648586Y-64215030D01*
X143422905Y-63877275D01*
X142849003Y-63493806D01*
X142342920Y-63393140D01*
X141201160Y-63393140D01*
X140695077Y-63493806D01*
X140121175Y-63877275D01*
X139737706Y-64451177D01*
X139603050Y-65128140D01*
X134341030Y-65128140D01*
X134206374Y-64451177D01*
X133822905Y-63877275D01*
X133249003Y-63493806D01*
X132742920Y-63393140D01*
X131601160Y-63393140D01*
X131095077Y-63493806D01*
X130521175Y-63877275D01*
X130137706Y-64451177D01*
X130003050Y-65128140D01*
X128042040Y-65128140D01*
X128042040Y-61318140D01*
X144347948Y-61318140D01*
X144463201Y-61897558D01*
X144791415Y-62388765D01*
X145110518Y-62601983D01*
X144980682Y-62662957D01*
X144590395Y-63091216D01*
X144420564Y-63501250D01*
X144541885Y-63731140D01*
X145735040Y-63731140D01*
X145735040Y-63711140D01*
X145989040Y-63711140D01*
X145989040Y-63731140D01*
X148275040Y-63731140D01*
X148275040Y-63711140D01*
X148529040Y-63711140D01*
X148529040Y-63731140D01*
X149722195Y-63731140D01*
X149843516Y-63501250D01*
X149673685Y-63091216D01*
X149283398Y-62662957D01*
X149153562Y-62601983D01*
X149472665Y-62388765D01*
X149800879Y-61897558D01*
X149916132Y-61318140D01*
X149800879Y-60738722D01*
X149593355Y-60428140D01*
X154846695Y-60428140D01*
X154974832Y-61072328D01*
X155339735Y-61618445D01*
X155885852Y-61983348D01*
X156367431Y-62079140D01*
X158216649Y-62079140D01*
X158698228Y-61983348D01*
X159244345Y-61618445D01*
X159609248Y-61072328D01*
X159737385Y-60428140D01*
X159609248Y-59783952D01*
X159244345Y-59237835D01*
X158698228Y-58872932D01*
X158216649Y-58777140D01*
X156367431Y-58777140D01*
X155885852Y-58872932D01*
X155339735Y-59237835D01*
X154974832Y-59783952D01*
X154846695Y-60428140D01*
X149593355Y-60428140D01*
X149472665Y-60247515D01*
X148981458Y-59919301D01*
X148548296Y-59833140D01*
X148255784Y-59833140D01*
X147822622Y-59919301D01*
X147331415Y-60247515D01*
X147132040Y-60545901D01*
X146932665Y-60247515D01*
X146441458Y-59919301D01*
X146008296Y-59833140D01*
X145715784Y-59833140D01*
X145282622Y-59919301D01*
X144791415Y-60247515D01*
X144463201Y-60738722D01*
X144347948Y-61318140D01*
X128042040Y-61318140D01*
X128042040Y-56478140D01*
X166222040Y-56478140D01*
X166222040Y-80166904D01*
G36*
X147132041Y-103153092D02*
X147117113Y-103228140D01*
X147176253Y-103525457D01*
X147287485Y-103691927D01*
X147344670Y-103777511D01*
X147408291Y-103820021D01*
X149780040Y-106191771D01*
X149780040Y-106355014D01*
X149897314Y-106638140D01*
X149720166Y-106638140D01*
X149339760Y-106795709D01*
X149224329Y-106911140D01*
X144548155Y-106911140D01*
X143714782Y-106077768D01*
X143714782Y-105914524D01*
X143557213Y-105534118D01*
X143266062Y-105242967D01*
X142885656Y-105085398D01*
X142473908Y-105085398D01*
X142374050Y-105126760D01*
X144040922Y-103459889D01*
X144040924Y-103459886D01*
X147132041Y-100368770D01*
X147132041Y-103153092D01*
X147132041Y-103153092D01*
G37*
X147132041Y-103153092D02*
X147117113Y-103228140D01*
X147176253Y-103525457D01*
X147287485Y-103691927D01*
X147344670Y-103777511D01*
X147408291Y-103820021D01*
X149780040Y-106191771D01*
X149780040Y-106355014D01*
X149897314Y-106638140D01*
X149720166Y-106638140D01*
X149339760Y-106795709D01*
X149224329Y-106911140D01*
X144548155Y-106911140D01*
X143714782Y-106077768D01*
X143714782Y-105914524D01*
X143557213Y-105534118D01*
X143266062Y-105242967D01*
X142885656Y-105085398D01*
X142473908Y-105085398D01*
X142374050Y-105126760D01*
X144040922Y-103459889D01*
X144040924Y-103459886D01*
X147132041Y-100368770D01*
X147132041Y-103153092D01*
G04 #@! TD*
M02*
